<?xml version="1.0" standalone="no"?><!DOCTYPE svg PUBLIC "-//W3C//DTD SVG 1.1//EN" "http://www.w3.org/Graphics/SVG/1.1/DTD/svg11.dtd"><svg t="1586251945542" class="icon" viewBox="0 0 1024 1024" version="1.1" xmlns="http://www.w3.org/2000/svg" p-id="1182" xmlns:xlink="http://www.w3.org/1999/xlink" width="200" height="200"><defs><style type="text/css"></style></defs><path d="M238.93333333 512l87.04 116.05333333a34.13333333 34.13333333 0 0 1-54.61333333 40.96l-102.4-136.53333333a34.0992 34.0992 0 0 1 0-40.96l102.4-136.53333333a34.13333333 34.13333333 0 0 1 54.61333333 40.96L238.93333333 512z m442.02666667 116.05333333a34.13333333 34.13333333 0 0 0 54.61333333 40.96l102.4-136.53333333a34.0992 34.0992 0 0 0 0-40.96l-102.4-136.53333333a34.13333333 34.13333333 0 0 0-54.61333333 40.96L768 512l-87.04 116.05333333z m-178.31253333 27.88693334a34.13333333 34.13333333 0 1 1-66.62826667-14.81386667l68.26666667-307.2a34.13333333 34.13333333 0 1 1 66.62826666 14.81386667l-68.26666666 307.2z" p-id="1183"></path><path d="M160 144a32 32 0 0 0-32 32v688a32 32 0 0 0 32 32h688a32 32 0 0 0 32-32V176a32 32 0 0 0-32-32H160z m0-64h688a96 96 0 0 1 96 96v688a96 96 0 0 1-96 96H160a96 96 0 0 1-96-96V176a96 96 0 0 1 96-96z" p-id="1184"></path></svg>