<?xml version="1.0" standalone="no"?>
<!DOCTYPE svg PUBLIC "-//W3C//DTD SVG 1.1//EN" "http://www.w3.org/Graphics/SVG/1.1/DTD/svg11.dtd" >
<!--
2013-9-30: Created.
-->
<svg>
<metadata>
Created by iconfont
</metadata>
<defs>

<font id="iconfont" horiz-adv-x="1024" >
  <font-face
    font-family="iconfont"
    font-weight="500"
    font-stretch="normal"
    units-per-em="1024"
    ascent="896"
    descent="-128"
  />
    <missing-glyph />
    
    <glyph glyph-name="biaodanyemian" unicode="&#59340;" d="M288 384l256 0C561.92 384 576 398.08 576 416 576 433.92 561.92 448 544 448l-256 0C270.08 448 256 433.92 256 416 256 398.08 270.08 384 288 384zM768 832 192 832C121.6 832 64 774.4 64 704l0-576c0-70.4 57.6-128 128-128l576 0c70.4 0 128 57.6 128 128L896 704C896 774.4 838.4 832 768 832zM832 128c0-35.2-28.8-64-64-64L192 64c-35.2 0-64 28.8-64 64L128 704c0 35.2 28.8 64 64 64l576 0c35.2 0 64-28.8 64-64L832 128zM672 640l-384 0C270.08 640 256 625.92 256 608 256 590.08 270.08 576 288 576l384 0C689.92 576 704 590.08 704 608 704 625.92 689.92 640 672 640zM608 256l-320 0C270.08 256 256 241.92 256 224l0 0C256 206.08 270.08 192 288 192l320 0c17.92 0 32 14.08 32 32l0 0C640 241.92 625.92 256 608 256z"  horiz-adv-x="1024" />

    
    <glyph glyph-name="biaodan" unicode="&#59229;" d="M814.379375 121.50468750000005h-595.5290625c-31.06875 0-56.420625 25.35375-56.420625 56.420625v113.34c0 31.06875 25.35375 56.420625 56.420625 56.420625h595.5290625c31.06875 0 56.420625-25.35375 56.420625-56.420625v-113.34c-0.2503125-31.06875-25.35375-56.420625-56.420625-56.420625zM218.8503125 310.15593750000005c-10.4390625 0-18.890625-8.4496875-18.890625-18.890625v-113.34c0-10.4390625 8.4496875-18.890625 18.890625-18.890625h595.5290625c10.4390625 0 18.890625 8.4496875 18.890625 18.890625v113.34c0 10.4390625-8.4496875 18.890625-18.890625 18.890625h-595.5290625zM658.0390625 422.2528125h-445.6509375c-27.5896875 0-49.9584375 22.3696875-49.9584375 49.9584375v126.2634375c0 27.5896875 22.3696875 49.9584375 49.9584375 49.9584375h608.4534375c27.5896875 0 49.9584375-22.3696875 49.9584375-49.9584375v-58.9078125c0-10.4390625-8.4496875-18.890625-18.890625-18.890625s-18.890625 8.4496875-18.890625 18.890625v58.9078125c0 6.710625-5.4684375 12.4284375-12.1790625 12.4284375h-608.4534375c-6.710625 0-12.4284375-5.4684375-12.4284375-12.4284375v-126.2634375c0-6.710625 5.4684375-12.1790625 12.4284375-12.1790625h445.6509375c10.4390625 0 18.890625-8.4496875 18.890625-18.890625s-8.4496875-18.890625-18.890625-18.890625zM804.933125 422.2528125c-4.7221875 0-9.6928125 1.7409375-13.1728125 5.4684375l-93.20625 93.20625c-7.456875 7.456875-7.456875 19.138125 0 26.595s19.138125 7.456875 26.595 0l93.20625-93.20625c7.456875-7.456875 7.456875-19.138125 0-26.595-3.976875-3.4790625-8.7-5.4684375-13.42125-5.4684375zM711.7259375 428.4646875c-10.4390625 0-18.890625 8.4496875-18.890625 18.890625v86.9934375c0 10.4390625 8.4496875 18.890625 18.890625 18.890625h86.9934375c10.4390625 0 18.890625-8.4496875 18.890625-18.890625s-8.4496875-18.890625-18.890625-18.890625h-68.3521875v-68.3521875c0-10.190625-8.4496875-18.64125-18.64125-18.64125z"  horiz-adv-x="1024" />

    
    <glyph glyph-name="js" unicode="&#59088;" d="M582.656 476.16l-134.4-132.032 35.648-35.008 134.4 132.096-35.648 35.008z m-26.88-237.76l35.584-35.008 134.4 132.096-35.648 35.008-134.4-132.096z m80.64 184.96l-134.4-132.096 35.648-35.008L672 388.352l-35.648 35.008z m146.24-18.304L630.208 554.88l37.632 37.056a100.736 100.736 0 0 1 0 144.064 104.32 104.32 0 0 1-73.216 29.888c-26.432 0-53.12-9.984-73.28-29.888L295.68 513.152a100.864 100.864 0 0 1-9.28-152.256l152.384-149.888-37.632-37.056a100.8 100.8 0 0 1 0-144.128c20.096-19.84 46.72-29.824 73.152-29.824h0.128c26.368 0 53.056 9.984 73.216 29.824l235.008 231.104a100.8 100.8 0 0 1 0 144.128zM556.992 701.12a53.44 53.44 0 0 0 37.632 15.296c13.696 0 27.2-5.056 37.632-15.36a51.712 51.712 0 0 0 0-74.048L460.16 457.728a101.12 101.12 0 0 1-27.2 47.296 103.68 103.68 0 0 1-47.424 26.624l171.52 169.472zM512 64.832a53.568 53.568 0 0 0-37.76-15.36 53.376 53.376 0 0 0-37.568 15.36 51.648 51.648 0 0 0 0 74.112l37.696 36.992 13.632-13.376 24-23.68a51.712 51.712 0 0 0 0-74.048z m235.008 231.104l-172.224-169.344a100.992 100.992 0 0 1-27.136 47.36l-24.064 23.68-201.664 198.272a51.648 51.648 0 0 0 0 74.048 53.44 53.44 0 0 0 37.632 15.36c13.696 0 27.2-5.056 37.632-15.36a51.712 51.712 0 0 0 0-74.048l35.648-35.008L594.56 519.936l128.384-126.272 24.064-23.68a51.584 51.584 0 0 0 0-74.048z"  horiz-adv-x="1024" />

    
    <glyph glyph-name="lianjixuanze" unicode="&#58996;" d="M115.336 692.88v-316.448H892V692.88H115.336z m756.792-299.8H135.208V676.224h736.912v-283.144zM652.792 676.224v-283.136h219.336V676.224H652.792z m109.664-171.912l-66.248 72.56h132.504l-66.256-72.56zM115.336 341.776v-316.448H892V341.776H115.336z m756.792-299.8H135.208V325.12h736.912v-283.144zM837.888 203.256l-66.992-73.16-67 73.16zM652.792 333.232h20.416v-291.256h-20.416z"  horiz-adv-x="1024" />

    
    <glyph glyph-name="zhongwen" unicode="&#59145;" d="M694.89664 527.05792h-155.04896V593.2544c0 12.99968-8.15104 28.1856-31.11936 28.1856-22.96832 0-31.11936-15.18592-31.11936-28.1856v-66.19648H331.06432c-28.14464 0-44.94336-15.2832-44.94336-40.88832v-145.21344c0-26.33728 17.22368-42.7008 44.94336-42.7008h146.54464v-126.09024c0-12.99968 8.15104-28.1856 31.11936-28.1856 22.96832 0 31.11936 15.18592 31.11936 28.1856v126.09024h155.04896c27.7248 0 44.94336 16.36352 44.94336 42.7008V486.1696c-0.00512 25.60512-16.80384 40.88832-44.94336 40.88832z m-17.29536-168.79104h-137.75872v110.592h137.7536l0.00512-110.592zM477.60384 468.88448l-0.0256-110.6176H348.35456V468.88448h129.24928zM913.39264 551.85408a432.86016 432.86016 0 0 1-93.12256 138.112c-39.88992 39.89504-86.35904 71.22432-138.10688 93.12256-53.56032 22.66112-110.47936 34.1504-169.17504 34.1504-58.63936 0-115.5584-11.48928-169.16992-34.1504a432.91648 432.91648 0 0 1-138.112-93.12256c-39.88992-39.88992-71.2192-86.35392-93.12256-138.112-22.67136-53.59616-34.16576-110.50496-34.16576-169.14432 0-58.67008 11.49952-115.57888 34.17088-169.14432 21.89312-51.74784 53.2224-98.21696 93.12256-138.112a433.26976 433.26976 0 0 1 138.11712-93.12768c53.56032-22.656 110.47936-34.14528 169.1648-34.14528 58.62912 0 115.54304 11.48928 169.17504 34.14528a432.90624 432.90624 0 0 1 138.10688 93.12768c39.90016 39.89504 71.22944 86.36416 93.12256 138.10688 22.656 53.56032 34.14528 110.46912 34.14528 169.14944 0 58.61376-11.48928 115.52256-34.1504 169.14432z m-27.00288-169.1392c0-205.88544-167.49568-373.38112-373.376-373.38112-205.9008 0-373.41184 167.49568-373.41184 373.38112 0 205.88032 167.51104 373.38112 373.41184 373.38112 205.88032-0.03072 373.376-167.5264 373.376-373.38112z"  horiz-adv-x="1024" />

    
    <glyph glyph-name="TABlunborongqi" unicode="&#58926;" d="M393.8 269.5h500.9V682H128.6v-412.5h265.2zM158 652.5h707.1V299H158V652.5zM128.6 63.3h235.7V240H128.6v-176.7zM158 210.6h176.8v-117.9H158V210.6zM393.8 63.3h235.7V240H393.8v-176.7z m29.4 147.3H600v-117.9H423.2V210.6zM894.6 63.3V240H658.9v-176.8h235.7zM688.4 210.6h176.8v-117.9H688.4V210.6z"  horiz-adv-x="1024" />

    
    <glyph glyph-name="buju" unicode="&#58906;" d="M781.69183326 687.36437988H242.36749291c-9.3092649 0-17.22930884-3.30743408-23.84417772-9.86792016-6.57531762-6.62475562-9.87780761-14.54479957-9.87780761-23.85406446v-101.12640405h606.74853539V653.63745117c0 9.3092649-3.30743408 17.22930884-9.87780761 23.85406518-6.62475562 6.56048608-14.54479957 9.86792016-23.84417701 9.86791944h0.01977491z m33.70220971-573.04632568V485.12145996H444.59063721v-404.50561547h337.08142114c9.29937744 0 17.22436547 3.30743408 23.844177 9.87780762 6.57531762 6.60992408 9.87780761 14.54479957 9.87780762 23.84417772v-0.01977563z m-438.20782447-33.70220971v404.50561548h-168.53576684v-370.80340577c0-9.31420898 3.30249-17.26391602 9.87286353-23.82934546 6.61486816-6.61981225 14.53491211-9.89263916 23.84417772-9.89263917h134.81872559v0.01977492zM242.34771729 754.78857422h539.32434106c27.89318824 0 51.74725342-9.87780761 71.50286865-29.62353539 19.74572778-19.75561523 29.61364722-43.58001733 29.61364722-71.48803711v-539.33917189c0-27.89318824-9.86792016-51.73736596-29.61364722-71.4929812-19.75561523-19.75561523-43.60968041-29.63342286-71.50286865-29.63342285H242.34771729c-27.91296386 0-51.74725342 9.87780761-71.50286866 29.63342285C151.08923339 62.60046385999999 141.21142578 86.44958497000005 141.21142578 114.33782983000003V653.67205835C141.21142578 681.58502221 151.08923339 705.40942359 170.84484863 725.16503883 190.60046386 744.91076661 214.43475342 754.78857422 242.34771729 754.78857422z"  horiz-adv-x="1024" />

    
    <glyph glyph-name="language" unicode="&#58930;" d="M517.76-35.200000000000045c-218.24 0-395.52 177.28-395.52 395.52 0.64 217.6 177.92 394.88 395.52 394.88 218.24 0 395.52-177.28 395.52-395.52 0-217.6-177.28-394.88-395.52-394.88z m0 726.4c-182.4 0-331.52-148.48-331.52-331.52 0-182.4 148.48-331.52 331.52-331.52s331.52 148.48 331.52 331.52c0 183.04-148.48 331.52-331.52 331.52zM547.84-23.039999999999964l-41.6 48.64c97.92 83.84 154.24 205.44 154.24 334.08 0 131.2-58.24 254.72-159.36 338.56l40.96 49.28c116.48-96 183.04-237.44 183.04-387.84-1.28-147.2-65.28-286.72-177.28-382.72zM490.88-14.720000000000027a503.4688 503.4688 0 0 0-167.04 374.4c0 149.12 65.92 289.92 180.48 385.92l40.96-49.28C445.44 612.48 387.84 490.24 387.84 359.67999999999995c0-124.16 53.12-243.2 145.28-326.4l-42.24-48zM856.32 441.6H787.2c-17.92 0-32 14.08-32 32s14.08 32 32 32h69.12c17.92 0 32-14.08 32-32s-14.72-32-32-32zM564.48 441.6H465.28c-17.92 0-32 14.08-32 32s14.08 32 32 32h98.56c17.92 0 32-14.08 32-32s-14.08-32-31.36-32zM247.68 441.6H185.6c-17.92 0-32 14.08-32 32s14.08 32 32 32h62.08c17.92 0 32-14.08 32-32s-14.08-32-32-32zM856.32 216.96000000000004h-64.64c-17.92 0-32 14.08-32 32s14.08 32 32 32h64.64c17.92 0 32-14.08 32-32s-14.72-32-32-32zM566.4 216.96000000000004H473.6c-17.92 0-32 14.08-32 32s14.08 32 32 32h92.8c17.92 0 32-14.08 32-32s-14.08-32-32-32zM256 216.96000000000004H185.6c-17.92 0-32 14.08-32 32s14.08 32 32 32h70.4c17.92 0 32-14.08 32-32s-14.08-32-32-32z"  horiz-adv-x="1024" />

    
    <glyph glyph-name="baocun" unicode="&#59702;" d="M814.805 768a51.179 51.179 0 0 0 51.179-51.179V51.99a51.179 51.179 0 0 0-51.179-51.157H201.173a51.179 51.179 0 0 0-51.178 51.157V716.821A51.179 51.179 0 0 0 201.173 768h613.654zM329.024 461.163a51.093 51.093 0 0 0-51.179 51.093V716.843h-76.672v-664.854h613.76V716.821H738.22v-204.48a51.179 51.179 0 0 0-51.179-51.178H329.024z m0 51.093h357.995V716.843H329.024v-204.587z m357.91-204.501a25.557 25.557 0 1 0 0.085-51.072H329.024a25.536 25.536 0 1 0 0 51.072h357.91z"  horiz-adv-x="1024" />

    
    <glyph glyph-name="weibiaoti--" unicode="&#58895;" d="M892.928 657.066667a34.133333 34.133333 0 0 0 34.133333-34.133334v-537.6a34.133333 34.133333 0 0 0-34.133333-34.133333H318.805333a34.133333 34.133333 0 0 0-34.133333 34.133333V622.933333a34.133333 34.133333 0 0 0 34.133333 34.133334h574.122667m0 34.133333H318.805333a70.656 70.656 0 0 1-70.656-68.266667v-537.6a70.656 70.656 0 0 1 70.656-70.656h574.122667a70.656 70.656 0 0 1 70.656 70.656V622.933333a70.656 70.656 0 0 1-70.656 70.656zM323.584 767.658667H207.872a34.133333 34.133333 0 0 1-34.133333-34.133334V579.242667h36.864V712.021333a17.749333 17.749333 0 0 0 17.749333 17.749334h95.232V767.658667zM1003.861333 767.658667H887.466667v-37.888h95.232a17.749333 17.749333 0 0 0 17.749333-17.749334v-133.12h37.888v153.6a34.133333 34.133333 0 0 1-34.133333 34.133334zM1038.336 128.682667h-37.888v-133.12a17.749333 17.749333 0 0 0-17.749333-17.749334H887.466667V-59.733333h115.712a34.133333 34.133333 0 0 1 34.133333 34.133333v154.282667zM210.602667 128.682667H172.714667V-25.6a34.133333 34.133333 0 0 1 34.133333-34.133333h116.736v37.888H228.352a17.749333 17.749333 0 0 0-17.749333 17.749333v133.12z"  horiz-adv-x="1262" />

    
    <glyph glyph-name="lianjie1" unicode="&#59116;" d="M944.47616 384a152.55552 152.55552 0 0 1-152.43264 152.43264h-178.33984a21.64736 21.64736 0 1 1 0-43.3152h178.33984a109.13792 109.13792 0 0 0 0-218.27584h-211.3536a109.2608 109.2608 0 0 0-109.13792 109.1584 21.66784 21.66784 0 0 1-36.864 15.42144l-0.1024-0.1024a21.52448 21.52448 0 0 1-6.3488-15.31904 151.26528 151.26528 0 0 1 44.6464-107.7248 151.3472 151.3472 0 0 1 107.74528-44.68736h211.39456A152.576 152.576 0 0 1 944.47616 384z m0 0M425.55392 268.57472a21.52448 21.52448 0 0 1-15.31904 6.3488h-178.36032a109.13792 109.13792 0 0 0 0 218.25536h211.3536A109.28128 109.28128 0 0 0 552.36608 384a21.66784 21.66784 0 0 1 43.33568 0 152.55552 152.55552 0 0 1-152.43264 152.43264h-211.3536a152.39168 152.39168 0 0 1-107.76576-260.096 151.32672 151.32672 0 0 1 107.74528-44.66688h178.33984a21.66784 21.66784 0 0 1 15.31904 36.864z m0 0"  horiz-adv-x="1024" />

    
    <glyph glyph-name="biaoqianye-" unicode="&#58886;" d="M700.416 61.6448H323.1744c-44.2368 0-80.2816 36.2496-80.2816 80.6912l0.4096 483.328c0 44.4416 36.0448 80.6912 80.2816 80.6912h258.6624l199.0656-199.0656V142.336c-0.2048-44.4416-36.2496-80.6912-80.896-80.6912zM323.584 670.72c-24.576 0-44.6464-20.2752-44.6464-45.056l-0.4096-483.328c0-24.7808 20.0704-45.056 44.6464-45.056H700.416c24.7808 0 45.056 20.2752 45.056 45.056V492.544l-177.9712 178.176H323.584zM544.1536 470.4256v176.3328l176.3328-176.3328z"  horiz-adv-x="1024" />

    
    <glyph glyph-name="kongjian" unicode="&#59107;" d="M881.140625 625.875h-454.921875c-9.140625 25.3125-33.046875 43.59375-61.171875 43.59375s-52.734375-18.28125-61.171875-43.59375h-155.390625c-11.953125 0-21.796875-9.84375-21.796875-21.796875 0-11.953125 9.84375-21.796875 21.796875-21.796875h155.390625c9.140625-25.3125 33.046875-43.59375 61.171875-43.59375s52.734375 18.28125 61.171875 43.59375h454.921875c11.953125 0 21.796875 9.84375 21.796875 21.796875 0 11.953125-9.84375 21.796875-21.796875 21.796875zM364.34375 566.8125c-21.09375 0-37.265625 16.875-37.265625 37.265625 0 21.09375 16.875 37.265625 37.265625 37.265625s37.265625-16.875 37.265625-37.265625c0.703125-20.390625-16.171875-37.265625-37.265625-37.265625zM881.140625 405.796875h-118.828125c-9.140625 25.3125-33.046875 43.59375-61.171875 43.59375s-52.734375-18.28125-61.171875-43.59375h-491.484375c-11.953125 0-21.796875-9.84375-21.796875-21.796875s9.84375-21.796875 21.796875-21.796875h491.484375c9.140625-25.3125 33.046875-43.59375 61.171875-43.59375s52.734375 18.28125 61.171875 43.59375h118.828125c11.953125 0 21.796875 9.84375 21.796875 21.796875s-9.84375 21.796875-21.796875 21.796875z m-180.703125-59.0625c-21.09375 0-37.265625 16.875-37.265625 37.265625 0 21.09375 16.875 37.265625 37.265625 37.265625s37.265625-16.875 37.265625-37.265625c0.703125-21.09375-16.171875-37.265625-37.265625-37.265625zM881.140625 185.71875h-454.921875c-9.140625 25.3125-33.046875 43.59375-61.171875 43.59375s-52.734375-18.28125-61.171875-43.59375h-155.390625c-11.953125 0-21.796875-9.84375-21.796875-21.796875s9.84375-21.796875 21.796875-21.796875h155.390625c9.140625-25.3125 33.046875-43.59375 61.171875-43.59375s52.734375 18.28125 61.171875 43.59375h454.921875c11.953125 0 21.796875 9.84375 21.796875 21.796875s-9.84375 21.796875-21.796875 21.796875z m-516.796875-59.765625c-21.09375 0-37.265625 16.875-37.265625 37.265625 0 21.09375 16.875 37.265625 37.265625 37.265625s37.265625-16.875 37.265625-37.265625c0.703125-20.390625-16.171875-37.265625-37.265625-37.265625z"  horiz-adv-x="1024" />

    
    <glyph glyph-name="button-tabitem" unicode="&#58946;" d="M942.08 230.39999999999998V537.6a20.48 20.48 0 0 1-20.48 20.48H112.64a20.48 20.48 0 0 1-20.48-20.48v-307.2h849.92zM112.64 599.04h808.96a61.44 61.44 0 0 0 61.44-61.44v-348.16H51.2V537.6a61.44 61.44 0 0 0 61.44 61.44zM826.65472 425.984l36.1984 36.20864a20.48 20.48 0 1 0 28.96896-28.95872l-36.20864-36.20864 36.20864-36.1984a20.48 20.48 0 1 0-28.96896-28.96896l-36.1984 36.20864-36.20864-36.20864a20.48 20.48 0 1 0-28.95872 28.96896l36.1984 36.1984-36.1984 36.20864a20.48 20.48 0 1 0 28.95872 28.95872l36.20864-36.1984z"  horiz-adv-x="1024" />

    
    <glyph glyph-name="duoxuanxialakuang" unicode="&#58988;" d="M1025.11002659 725.1017389799999a29.68683524 29.68683524 0 0 1-29.68683524 29.68683524H189.64826102a29.68683524 29.68683524 0 0 1-29.68683524-29.68683523v-373.31195559a29.68683524 29.68683524 0 0 1 29.68683523-29.68683523h805.99758164a29.68683524 29.68683524 0 0 1 29.68683524 29.68683522zM194.95478286 359.84233790999997V718.01400675h795.45875503v-358.17166884zM941.98688735 260.42854763a20.81789336 20.81789336 0 0 1-20.81789336-20.81789336v-188.4000789a0.92771375 0.92771375 0 0 0-0.89060518-0.92771373H264.45908662a0.92771375 0.92771375 0 0 0-0.89060519 0.92771373v189.77309523a19.48198558 19.48198558 0 0 1-19.48198558 19.44487703 20.18704802 20.18704802 0 0 1-20.14993947-20.18704802v-210.36833729a16.624628 16.624628 0 0 1 16.62462728-16.66173654h703.94908506a16.66173654 16.66173654 0 0 1 16.62462727 16.66173655v211.51870232a19.14800864 19.14800864 0 0 1-19.14800864 19.03668298zM933.30348822 588.69072995a17.32969043 17.32969043 0 0 1 0 24.52874757 17.32969043 17.32969043 0 0 1-24.52874759 0l-111.77093581-111.77093509-111.77093508 111.77093509a17.32969043 17.32969043 0 0 1-24.52874757-24.52874757l124.0538635-124.05386353a17.36679899 17.36679899 0 0 1 24.52874758 0z"  horiz-adv-x="1193" />

    
    <glyph glyph-name="shujubiaoge" unicode="&#59426;" d="M186.28571469 658.28571469a34.28571469 34.28571469 0 0 1-34.28571469-34.28571469v-480a34.28571469 34.28571469 0 0 1 34.28571469-34.28571469h651.42857062a34.28571469 34.28571469 0 0 1 34.28571469 34.28571469V624a34.28571469 34.28571469 0 0 1-34.28571469 34.28571469h-651.42857062z m0 34.28571375h651.42857062a68.57142844 68.57142844 0 0 0 68.57142938-68.57142844v-480a68.57142844 68.57142844 0 0 0-68.57142938-68.57142844h-651.42857062a68.57142844 68.57142844 0 0 0-68.57142938 68.57142844V624a68.57142844 68.57142844 0 0 0 68.57142938 68.57142844zM152 521.14285688h720v-34.28571376h-720zM152 384h720v-34.28571469h-720zM152 246.85714312000005h720v-34.28571468h-720zM357.71428531 486.85714313h34.28571469v-411.42857157h-34.28571469zM632 486.85714313h34.28571469v-411.42857157h-34.28571469z"  horiz-adv-x="1024" />

    
    <glyph glyph-name="mianbaoxie-xian" unicode="&#58936;" d="M141.2 402.48h741.6q24.72 0 24.72-20.688c0-13.824-8.256-20.688-24.72-20.688H141.2c-16.464 0-24.72 6.864-24.72 20.688q0 20.64 24.72 20.688zM141.2 615.264h741.6q24.72 0 24.72-20.736t-24.72-20.736H141.2q-24.672 0-24.72 20.736 0 20.736 24.72 20.736zM141.2 193.87199999999996h741.6q24.72 0 24.72-20.688c0-13.824-8.256-20.688-24.72-20.688H141.2c-16.464 0-24.72 6.864-24.72 20.688q0 20.64 24.72 20.688z"  horiz-adv-x="1024" />

    
    <glyph glyph-name="dilanxianxingiconyihuifu_huabanfuben" unicode="&#58885;" d="M837 181h-33V366c0 35.29-28.71 64-64 64H544V587h96c35.29 0 64 28.71 64 64V767c0 35.29-28.71 64-64 64H384c-35.29 0-64-28.71-64-64v-116c0-35.29 28.71-64 64-64h96v-157H284c-35.29 0-64-28.71-64-64v-185h-32c-67.271 0-122-54.729-122-122s54.729-122 122-122h140c67.271 0 122 54.729 122 122s-54.729 122-122 122h-44V366h456v-185h-43c-67.271 0-122-54.729-122-122s54.729-122 122-122h140c67.271 0 122 54.729 122 122s-54.729 122-122 122zM384 767h256l0.04-115.998s-0.013-0.002-0.04-0.002H384V767z m2-708c0-31.981-26.019-58-58-58H188c-31.981 0-58 26.019-58 58s26.019 58 58 58h140c31.981 0 58-26.019 58-58z m451-58H697c-31.981 0-58 26.019-58 58s26.019 58 58 58h140c31.981 0 58-26.019 58-58s-26.019-58-58-58z"  horiz-adv-x="1024" />

    
    <glyph glyph-name="mianban" unicode="&#58927;" d="M922.88-32H227.2A94.72 94.72 0 0 0 132.48 64V353.28A30.72 30.72 0 0 0 163.2 384a31.36 31.36 0 0 0 28.8-30.72V64a32.64 32.64 0 0 1 32.64-32h698.24a32 32 0 0 1 32 32V414.08l-192 192H430.72a31.36 31.36 0 1 0 0 64h347.52a32.64 32.64 0 0 0 22.4-9.6L1008.64 448a30.72 30.72 0 0 0 8.96-21.76V64a94.72 94.72 0 0 0-94.72-96zM965.76 359.68h-221.44a31.36 31.36 0 0 0-31.36 31.36v236.8a31.36 31.36 0 1 0 64 0V422.4h192a31.36 31.36 0 1 0 0-64zM288.64 604.8H38.4a31.36 31.36 0 0 0 0 64h250.24a31.36 31.36 0 0 0 0-64zM163.2 479.36A30.72 30.72 0 0 0 132.48 512V760.96a30.72 30.72 0 0 0 30.72 31.36 31.36 31.36 0 0 0 28.8-31.36V512a31.36 31.36 0 0 0-28.8-32.64z"  horiz-adv-x="1024" />

    
    <glyph glyph-name="tupian" unicode="&#58928;" d="M862.68359375 125.6015625H161.31640625c-10.21728516 0-18.45703125 8.23974609-18.45703125 18.45703125V623.94140625c0 10.21728516 8.23974609 18.45703125 18.45703125 18.45703125h701.3671875c10.21728516 0 18.45703125-8.23974609 18.45703125-18.45703125v-479.8828125c0-10.21728516-8.23974609-18.45703125-18.45703125-18.45703125z m-682.91015625 36.9140625h664.453125V605.484375H179.7734375v-442.96875zM770.3984375 199.4296875c-2.96630859 0-6.01501465 0.74157715-8.81652833 2.22473145l-391.22314452 213.40942382L268.92749023 263.04052734000004c-5.68542481-8.48693848-17.13867188-10.79406739-25.62561035-5.10864257-8.48693848 5.68542481-10.79406739 17.13867188-5.10864257 25.62561035l110.74218749 166.11328124c5.2734375 7.99255372 15.8203125 10.546875 24.22485352 5.9326172l406.05468751-221.48437501c8.98132325-4.8614502 12.27722168-16.06750489 7.33337401-25.04882812-3.29589844-6.17980958-9.64050293-9.64050293-16.14990234-9.64050293zM622.7421875 282.48632812000005c-3.21350098 0-6.42700195 0.82397461-9.39331055 2.5543213-8.81652833 5.19104004-11.70043945 16.56188965-6.50939942 25.2960205l49.19128419 83.05664063c4.8614502 8.15734864 15.07873536 11.28845215 23.64807129 7.33337403l80.00793457-36.91406251c9.22851563-4.28466797 13.26599122-15.24353028 9.0637207-24.4720459-4.28466797-9.22851563-15.24353028-13.26599122-24.47204589-9.0637207l-64.84680177 29.91027831-40.7043457-68.71948241c-3.54309083-5.76782227-9.72290039-8.98132325-15.98510742-8.98132324zM567.37109375 439.37109375c-40.7043457 0-73.828125 33.1237793-73.828125 73.828125s33.1237793 73.828125 73.828125 73.828125c40.7043457 0 73.828125-33.1237793 73.828125-73.828125s-33.1237793-73.828125-73.828125-73.828125z m0 110.7421875c-20.35217286 0-36.9140625-16.56188965-36.9140625-36.9140625 0-20.35217286 16.56188965-36.9140625 36.9140625-36.9140625 20.35217286 0 36.9140625 16.56188965 36.9140625 36.9140625 0 20.35217286-16.56188965 36.9140625-36.9140625 36.9140625z"  horiz-adv-x="1024" />

    
    <glyph glyph-name="zujian" unicode="&#59335;" d="M769.9 356.9h34.9c25.7 0 46.6 22.7 46.6 50.7V553.7c0 3.8-3.1 6.8-6.8 6.8h-13.5c-3.8 0-6.8-3.1-6.8-6.8v-142.6c0-20.3-9.6-27.1-27.1-27.1h-27.1c-7.5 0-13.5-6.1-13.5-13.5-0.3-7.6 5.8-13.6 13.3-13.6zM484.9 832c-60.1 0-108.6-48.7-108.6-108.6v-475.1h475.1c60 0 108.6 48.6 108.6 108.6V832H484.9zM892 370.4c0-29.9-24.4-54.3-54.3-54.3H444.1V709.7c0 29.9 24.4 54.3 54.3 54.3H892v-393.6zM579.9 58.3c0-29.9-24.4-54.3-54.3-54.3H132V397.6c0 29.9 24.4 54.3 54.3 54.3H322v67.8H172.6c-60 0-108.6-48.6-108.6-108.6V-64h475.1c60 0 108.6 48.6 108.6 108.6V180.4h-67.8v-122.1zM715.6 356.9c7.5 0 13.5 6.1 13.5 13.5s-6.1 13.5-13.5 13.5c-7.5 0-13.5-6.1-13.5-13.5s6-13.5 13.5-13.5z"  horiz-adv-x="1024" />

    
    <glyph glyph-name="kaifazujian" unicode="&#58944;" d="M950.6-96H271.3c-18.7 0-33.4 14.7-33.4 33.5V141c-8-5.4-17.4-9.4-26.7-12.1h-1.3c-12-4-25.4-5.4-37.4-5.4C98.8 123.6 40 183.8 40 256.1c0 73.6 60.2 132.6 132.4 132.6 13.4 0 26.7-2.7 40.1-6.7 1.3 0 2.7-1.3 4-1.3 6.7-2.7 13.4-5.4 18.7-8l2.7-1.3V617.6c0 18.7 14.7 33.5 33.4 33.5h217.9l-4 8c-6.7 10.7-12 21.4-14.7 33.5V694c-4 12.1-5.3 25.4-5.3 37.5C465.2 805.1 525.4 864 597.6 864 671.1 864 730 803.7 730 731.4c0-13.4-2.7-26.8-6.7-40.2 0-1.3-1.3-2.7-1.3-4-2.7-6.7-5.3-13.4-8-18.7l-6.7-16.1h243.4c18.7 0 33.4-14.7 33.4-33.5V319c0-10.7-5.3-21.4-14.7-28.1-9.4-6.7-21.4-6.7-32.1-2.7l-57.5 25.4c-1.3 0-1.3 1.3-2.7 1.3-2.7 1.3-6.7 4-10.7 5.4H865c-6.7 2.7-13.4 2.7-20.1 2.7-36.1 0-65.5-29.5-65.5-65.6 0-36.2 29.4-65.6 65.5-65.6 6.7 0 13.4 1.3 18.7 2.7 6.7 1.3 12 5.4 17.4 8 1.3 1.3 2.7 1.3 4 2.7l50.8 24.1c10.7 5.4 22.7 4 32.1-1.3s16-17.4 16-28.1v-262.4c0.1-18.8-14.6-33.5-33.3-33.5z m-645.9 66.9h612.4V145h-1.3c-10.7-6.7-21.4-12.1-33.4-16.1H881c-12-4-25.4-5.4-37.4-5.4-73.5 0-132.4 60.3-132.4 132.6 0 73.6 60.2 132.6 132.4 132.6 13.4 0 26.7-2.7 40.1-6.7 1.3 0 2.7-1.3 4-1.3 6.7-2.7 13.4-5.4 18.7-8l9.4-4V582.8H655.1c-10.7 0-21.4 5.4-28.1 14.7-6.7 9.4-6.7 21.4-2.7 32.1l28.1 64.3c0 1.3 1.3 1.3 1.3 2.7 1.3 2.7 4 6.7 5.3 10.7v1.3c2.7 6.7 2.7 13.4 2.7 20.1 0 36.2-29.4 65.6-65.5 65.6s-65.5-29.5-65.5-65.6c0-6.7 1.3-13.4 2.7-18.7 1.3-6.7 5.3-12.1 8-17.4 1.3-1.3 1.3-2.7 2.7-4l26.7-57.6c5.3-10.7 4-22.8-1.3-32.1-5.3-9.4-17.4-16.1-28.1-16.1H304.7v-262.4c0-10.7-5.3-21.4-14.7-28.1s-21.4-6.7-32.1-2.7l-50.8 22.8c-1.3 0-1.3 1.3-2.7 1.3-2.7 1.3-6.7 4-10.7 5.4h-1.3c-6.7 2.7-13.4 2.7-20.1 2.7-36.1 0-65.5-29.5-65.5-65.6 0-36.2 29.4-65.6 65.5-65.6 6.7 0 13.4 1.3 18.7 2.7 6.7 1.3 12 5.4 17.4 8 1.3 1.3 2.7 1.3 4 2.7l44.1 21.4c10.7 5.4 22.7 4 32.1-1.3 9.4-6.7 16-17.4 16-28.1v-225.1h0.1z"  horiz-adv-x="1024" />

    
    <glyph glyph-name="shuzi" unicode="&#59895;" d="M507.904 626.688H441.856c-3.584 0-6.144-3.072-6.144-6.144v-355.328h-6.144L183.296 624.128c-1.024 1.536-3.072 2.56-5.12 2.56H108.544c-3.584 0-6.144-3.072-6.144-6.144v-484.864c0-3.584 3.072-6.144 6.144-6.144H174.08c3.584 0 6.144 3.072 6.144 6.144V496.128h6.144L435.2 132.096c1.024-1.536 3.072-2.56 5.12-2.56h67.072c3.584 0 6.144 3.072 6.144 6.144V620.544c0.512 3.584-2.048 6.144-5.632 6.144z m394.752-431.104h-317.44c-4.608 0-8.192-3.584-8.192-8.192v-50.176c0-4.608 3.584-8.192 8.192-8.192h317.44c4.608 0 8.192 3.584 8.192 8.192v50.176c0.512 4.096-3.584 8.192-8.192 8.192z m-158.72 65.536c55.296 0 99.328 17.92 132.096 54.272 30.72 34.304 46.08 79.36 46.08 134.656s-15.36 100.864-46.08 135.168c-32.256 36.352-76.288 54.784-132.096 54.784-56.32 0-100.352-18.432-132.096-55.296-30.72-34.816-45.568-79.36-45.568-134.656 0-54.784 14.848-99.328 45.568-134.144 32.256-36.352 76.288-54.784 132.096-54.784z m-74.752 275.456c17.408 21.504 41.984 32.256 74.752 32.256s57.344-10.24 74.24-30.208c16.896-20.992 26.112-50.688 26.112-88.576s-8.704-67.072-26.112-87.552c-17.408-20.48-41.984-30.72-74.24-30.72-32.768 0-57.344 10.752-74.752 31.744-16.896 20.992-25.6 49.664-25.6 86.528 0 37.376 8.192 65.536 25.6 86.528z"  horiz-adv-x="1024" />

    
    <glyph glyph-name="wenzi-" unicode="&#59041;" d="M822.272 552.448H203.52c-15.36 0-28.16 9.728-28.16 21.76s12.5952 21.76 28.16 21.76H822.272c15.36 0 28.1088-9.728 28.1088-21.76s-12.5952-21.76-28.1088-21.76zM512 137.3184a21.3504 21.3504 0 0 0-21.9648 20.736v394.24h43.9808v-394.24a21.4016 21.4016 0 0 0-22.016-20.736z"  horiz-adv-x="1024" />

    
    <glyph glyph-name="dockerrongqi" unicode="&#59197;" d="M237.1584 805.12h284.7744c17.408 0 31.488-15.9232 31.488-35.5328v-771.1744c0-19.6096-14.08-35.5328-31.488-35.5328H237.1584c-17.3568 0-31.4368 15.9232-31.4368 35.5328V769.5871999999999c0 19.6096 14.08 35.5328 31.4368 35.5328z m0-35.5328v-771.1744h284.7744V769.5871999999999zM617.9328 599.04h168.96c17.3568 0 31.4368-15.9232 31.4368-35.5328v-565.0944c0-19.6096-14.08-35.5328-31.4368-35.5328h-168.96c-17.3568 0-31.4368 15.9232-31.4368 35.5328V563.712c0 19.6096 14.08 35.5328 31.4368 35.5328z m0-35.5328v-565.0944h168.96V563.712zM354.7136 622.7968000000001h66.2528V599.04H354.7136z m314.5728-224.9728h49.664v-23.1936h-49.664z m-33.1264-191.6416h132.4544v-25.856h-132.4544v25.856z m-347.648 0h182.1184v-25.856H288.512v25.856z m182.1184 174.8992H288.512v25.6h182.1184z"  horiz-adv-x="1024" />

    
    <glyph glyph-name="lianjie" unicode="&#59109;" d="M448 160.256H344.064c-27.136 0-53.76 6.144-79.872 17.92-25.088 11.264-49.152 28.16-69.632 48.64-20.48 20.992-36.864 45.056-48.64 71.68-11.776 27.648-17.92 56.32-17.92 85.504s6.144 57.856 17.92 85.504c11.264 26.624 27.648 50.688 48.64 71.68 19.968 20.48 44.032 37.376 69.632 49.152 26.112 11.776 53.248 17.92 79.872 17.92h103.936c17.408 0 31.744 14.336 31.744 31.744s-14.336 31.744-31.744 31.744H344.064c-36.352 0-72.192-7.68-106.496-23.552-32.768-14.848-62.976-35.84-89.088-62.464-26.112-26.624-47.104-57.344-61.44-91.136-15.36-35.84-23.04-72.704-23.04-110.592 0-37.888 7.68-75.264 23.04-110.592 14.848-33.792 35.328-64.512 61.44-91.136 26.112-26.624 55.808-47.616 89.088-62.464 34.304-15.36 70.144-23.552 106.496-23.552h103.936c17.408 0 31.744 14.336 31.744 31.744 0 17.92-14.336 32.256-31.744 32.256zM936.96 494.592c-14.848 33.792-35.328 64.512-61.44 91.136-26.112 26.624-55.808 47.616-89.088 62.464-34.304 15.36-70.144 23.552-106.496 23.552h-103.936c-17.408 0-31.744-14.336-31.744-31.744 0-17.408 14.336-31.744 31.744-31.744h103.936c27.136 0 53.76-6.144 79.872-17.92 25.088-11.264 49.152-28.16 69.632-49.152s36.864-45.056 48.64-71.68c11.776-27.648 17.92-56.32 17.92-85.504s-6.144-57.856-17.92-85.504c-11.264-26.624-27.648-50.688-48.64-71.68-19.968-20.48-44.032-37.376-69.632-48.64-26.112-11.776-53.248-17.92-79.872-17.92h-103.936c-17.408 0-31.744-14.336-31.744-31.744s14.336-31.744 31.744-31.744h103.936c36.352 0 72.192 7.68 106.496 23.552 32.768 14.848 62.976 35.84 89.088 62.464 26.112 26.624 47.104 57.344 61.44 91.136 15.36 35.84 23.04 72.704 23.04 110.592 0 37.376-7.68 74.752-23.04 110.08zM285.696 384.512c0-17.408 14.336-31.744 31.744-31.744h388.096c17.408 0 31.744 14.336 31.744 31.744 0 17.408-14.336 31.744-31.744 31.744H317.952c-17.92 0-32.256-14.336-32.256-31.744z"  horiz-adv-x="1024" />

    
    <glyph glyph-name="page" unicode="&#59106;" d="M192 704v-640h640V704H192zM128 768h768v-768H128V768z m64-256h640v-64H192V512z m64 128h128v-64H256V640z"  horiz-adv-x="1024" />

    
    <glyph glyph-name="icon-test" unicode="&#58888;" d="M478.10128529 66.97576904000005H201.0913213c-31.13079071 0-56.46800995 25.33721924-56.46800994 56.46800995V633.04632568c0 31.13079071 25.33721924 56.46800995 56.46800995 56.46800995h542.89627075c31.13079071 0 56.46800995-25.33721924 56.46800994-56.46800995v-203.54747772h-35.53390502V633.04632568c0 11.58714294-9.42420959 20.93410492-20.93410492 20.93410493H201.0913213c-11.58714294 0-20.93410492-9.42420959-20.93410492-20.93410493v-509.52529907c0-11.58714294 9.42420959-20.93410492 20.93410493-20.93410492h277.00996399v-35.61115265zM702.96910604-9.808364869999991c-54.53681946 0-105.82923889 21.2430954-144.3758011 59.7896576-38.5465622 38.5465622-59.7896576 89.83898164-59.78965758 144.37580108s21.2430954 105.82923889 59.78965759 144.37580109C597.13986714 377.43395233 648.43228658 398.67704773 702.96910604 398.67704773s105.82923889-21.2430954 144.37580109-59.7896576c38.5465622-38.5465622 59.7896576-89.83898164 59.78965758-144.37580108s-21.2430954-105.82923889-59.78965759-144.37580108c-38.5465622-38.70105743-89.83898164-59.94415283-144.37580108-59.94415284z m0 374.41921235c-93.85585785 0-170.17650605-76.3206482-170.17650605-170.17650605 0-93.85585785 76.3206482-170.17650605 170.17650605-170.17650605s170.17650605 76.3206482 170.17650604 170.17650605c0 93.85585785-76.3206482 170.17650605-170.17650604 170.17650605zM162.39026387 491.45143891h620.37563324v-35.53390504H162.39026387zM316.42201741 779.5078125h35.53390503v-168.94054414h-35.53390503zM572.72961934 779.5078125h35.53390503v-168.94054414h-35.53390503zM677.55463919 350.9380188h34.06620024v-170.4082489h-34.06620025zM677.55463919 206.48497010000006h143.83506773v-34.06620027H677.55463919z"  horiz-adv-x="1024" />

    
    <glyph glyph-name="menu_icon_sata" unicode="&#58880;" d="M910.222 787.911H113.778c-17.067 0-34.134-17.067-34.134-34.133v-307.2c0-17.067 17.067-34.134 34.134-34.134h796.444c17.067 0 34.134 17.067 34.134 34.134v307.2c0 22.755-17.067 34.133-34.134 34.133z m-34.133-307.2H147.91V719.644H870.4v-238.933z m34.133-125.155H113.778c-17.067 0-34.134-17.067-34.134-34.134v-307.2c0-17.066 17.067-34.133 34.134-34.133h796.444c17.067 0 34.134 17.067 34.134 34.133v307.2c0 17.067-17.067 34.134-34.134 34.134z m-34.133-307.2H147.91V287.289H870.4v-238.933zM227.556 634.311h119.466v-68.267H227.556z m0-438.044h119.466V128H227.556z"  horiz-adv-x="1024" />

    
    <glyph glyph-name="lunbotu" unicode="&#59071;" d="M107.789474 168.421053h808.421052V626.526316H107.789474v-458.105263zM80.842105 653.473684h862.31579v-512H80.842105V653.473684zM375.026526 213.746526c-21.072842 0-38.184421 16.976842-38.184421 37.968842 0 21.018947 17.111579 37.968842 38.184421 37.968843 21.045895 0 38.157474-16.976842 38.157474-37.99579 0-20.965053-17.111579-37.941895-38.157474-37.941895z m0 26.947369a11.129263 11.129263 0 0 1 11.210106 11.021473 11.129263 11.129263 0 0 1-11.210106 11.021474 11.129263 11.129263 0 0 1-11.237052-11.048421c0-6.036211 5.012211-10.994526 11.237052-10.994526zM523.237053 213.746526c-21.072842 0-38.184421 16.976842-38.184421 37.968842 0 21.018947 17.111579 37.968842 38.184421 37.968843 21.045895 0 38.157474-16.976842 38.157473-37.99579 0-20.965053-17.111579-37.941895-38.157473-37.941895z m0 26.947369a11.129263 11.129263 0 0 1 11.210105 11.021473 11.129263 11.129263 0 0 1-11.210105 11.021474 11.129263 11.129263 0 0 1-11.237053-11.048421c0-6.036211 5.012211-10.994526 11.237053-10.994526zM671.447579 213.746526c-21.072842 0-38.184421 16.976842-38.184421 37.968842 0 21.018947 17.111579 37.968842 38.184421 37.968843 21.045895 0 38.157474-16.976842 38.157474-37.99579 0-20.965053-17.111579-37.941895-38.157474-37.941895z m0 26.947369a11.129263 11.129263 0 0 1 11.210105 11.021473 11.129263 11.129263 0 0 1-11.210105 11.021474 11.129263 11.129263 0 0 1-11.237053-11.048421c0-6.036211 5.012211-10.994526 11.237053-10.994526z"  horiz-adv-x="1024" />

    
    <glyph glyph-name="yueba-caidanlan-zixunguanli" unicode="&#58995;" d="M227.6-17.940000000000055a69.12 69.12 0 0 0-67.32 70.92V690A69.12 69.12 0 0 0 227.6 760.74h484.38A69.3 69.3 0 0 0 779.3 690v-127.8h27.36a69.66 69.66 0 0 0 67.32-72v-436.14a69.66 69.66 0 0 0-67.32-72z m0 740.88A32.4 32.4 0 0 1 196.28 690v-637.02a32.22 32.22 0 0 1 31.32-33.12h579.06a32.58 32.58 0 0 1 31.32 33.84V490.56a32.58 32.58 0 0 1-31.32 33.84h-27.36v-354.06a18 18 0 1 0-36 0V690a32.4 32.4 0 0 1-31.32 33.12zM639.98 550.86H301.94a18.9 18.9 0 0 0 0 37.8h338.04a18.9 18.9 0 0 0 0-37.8zM639.98 371.22H301.94a18.9 18.9 0 0 0 0 37.8h338.04a18.9 18.9 0 0 0 0-37.8zM470.06 191.39999999999998h-168.12a18.9 18.9 0 0 0 0 37.8h168.12a18.9 18.9 0 0 0 0-37.8z"  horiz-adv-x="1024" />

    
    <glyph glyph-name="zhediemianban" unicode="&#58891;" d="M802.133333 42.666667h-580.266666a51.2 51.2 0 0 0-51.2 51.2v546.133333a51.2 51.2 0 0 0 51.2 51.2h580.266666a51.2 51.2 0 0 0 51.2-51.2v-546.133333a51.2 51.2 0 0 0-51.2-51.2z m-580.266666 614.4a17.066667 17.066667 0 0 1-17.066667-17.066667v-546.133333a17.066667 17.066667 0 0 1 17.066667-17.066667h580.266666a17.066667 17.066667 0 0 1 17.066667 17.066667v546.133333a17.066667 17.066667 0 0 1-17.066667 17.066667zM853.333333 452.266667h-682.666666V640a51.2 51.2 0 0 0 51.2 51.2h580.266666a51.2 51.2 0 0 0 51.2-51.2z m-648.533333 34.133333h614.4V640a17.066667 17.066667 0 0 1-17.066667 17.066667h-580.266666a17.066667 17.066667 0 0 1-17.066667-17.066667zM668.551032 619.997763m12.067956-12.067956l48.271823-48.271823q12.067956-12.067956 0-24.135911l0 0q-12.067956-12.067956-24.135912 0l-48.271823 48.271823q-12.067956 12.067956 0 24.135911l0 0q12.067956 12.067956 24.135912 0ZM789.227907 595.815031m-12.067956-12.067956l-48.271823-48.271823q-12.067956-12.067956-24.135911 0l0 0q-12.067956 12.067956 0 24.135912l48.271822 48.271822q12.067956 12.067956 24.135912 0l0 0q12.067956-12.067956 0-24.135911Z"  horiz-adv-x="1024" />

    
    <glyph glyph-name="shezhi" unicode="&#58894;" d="M393.46949375 776.8246875c15.23521406-0.13969951 28.09553203-5.68482891 38.91909023-16.48933769 16.04801338-16.02102568 34.04547334-29.33060537 54.76549131-38.88575333 17.92126055-8.2661001 35.6155084-8.34388682 53.56058028-0.18414931 20.75811855 9.44084795 38.67937823 22.83615263 54.98932851 38.57936572 14.73197783 14.22080332 32.08808847 18.77215869 51.93815801 13.93981612 3.45756973-0.84296162 6.67860205-2.28917109 9.79009716-4.01954414 31.49595176-17.52279785 63.00460371-35.02178437 94.50055547-52.53981944 19.25952099-10.71084638 28.51621875-34.37884776 21.44709229-55.26396562-3.64965732-10.7870458-7.79778808-21.42010459-9.41386025-32.77547491-3.15594492-22.19162871 1.23666065-43.10373428 12.22531875-62.34896689 17.58312334-30.79745332 44.39913222-48.41073896 79.54474131-53.19863086 4.11479385-0.56038623 8.32166192-0.77311143 12.47296816-0.66198692 17.34658594 0.45878643 27.27320801-9.40116094 33.64224873-24.07598789 4.72439268-10.88547099 5.74674082-22.66946543 7.39932627-34.22962265 3.23531982-22.61390273 5.94676582-45.31353047 4.78789278-68.2258834-1.24618536-24.66653731-3.97191885-49.19654971-9.37576055-73.31857559-2.6574706-11.85860654-8.3661126-22.14241612-19.2452335-28.78291846-5.36891661-3.27500771-11.2807582-3.90206865-17.32436103-3.96398144-29.8528919-0.2936874-55.79736504-10.52034609-76.0189087-32.48337568-29.53856777-32.08650117-36.92201836-69.08154434-20.82955606-110.01516944 6.28014023-15.9749877 6.18330323-31.22449013-2.8511455-46.0374293-3.83380664-6.28649033-8.94554912-11.42521963-15.41142685-15.01296415-32.72943779-18.15462246-65.47475039-36.28384453-98.25975-54.3400418-17.94507276-9.88058497-43.13072198-6.20870273-58.20877354 8.94713642-14.20969043 14.27795333-29.16391816 27.5287957-46.60099101 37.7538671-8.1152877 4.75773047-16.53219932 8.87093614-25.63808555 11.46490751-14.60974043 4.15765635-28.38763125 1.35731075-41.75436094-4.87996787-21.08514287-9.84407256-39.27151494-23.74420166-55.42589004-40.32561357-10.28857148-10.56320859-22.50912832-16.48616221-37.26333017-17.02273623-8.63281143-0.31114951-16.86874922 1.26206016-24.48714991 5.52131631-31.45943935 17.59106074-62.94110362 35.14084629-94.37038066 52.78905703-18.10223526 10.16315948-27.4271959 34.37408497-20.66445615 54.04476709 3.95921865 11.50459453 8.48358721 22.84726552 9.89963525 35.02337168 3.0003706 25.81271016-3.59091914 49.2870375-18.51815918 70.29756738-18.03079776 25.37932412-42.91799678 39.65410195-73.71227461 43.6688833-3.81158174 0.49688701-7.70730029 0.65087402-11.55380713 0.53974951-17.62916045-0.50323711-27.97964473 9.14716143-34.36773486 24.38396279-5.137142 12.25865654-6.16584023 25.43012403-7.97558819 38.35870401-3.03688301 21.70585459-5.2895417 43.5133081-4.04970644 65.50173721 1.37477286 24.35538779 3.95763135 48.58536357 9.47418574 72.37401416 2.7130333 11.69668213 8.43754922 21.78364131 19.2245959 28.25745644 5.1101543 3.06704531 10.69497158 3.68140693 16.44012509 3.72744404 24.3728499 0.1936749 46.3660418 7.32947607 65.70017491 22.36149054 31.63882675 24.6014499 49.3457748 69.47048145 35.06782149 111.34072969-2.6209582 7.68666357-6.03249082 15.10503926-7.31518858 23.29017714-2.70827051 17.27356113 6.47857793 37.82371729 21.7455416 46.28984151 33.80417315 18.75152109 67.73852109 37.27603037 101.66175703 55.81323984C378.66607842 775.64041406 385.94316729 776.9119998 393.46949375 776.8246875zM860.18425596 462.39539297c-0.44291162 2.85273281-1.75418526 3.75601904-4.53071778 3.84650684-3.99890654 0.13176211-8.0232126 0.49847432-11.96496914 1.18109795-32.70880019 5.65625391-61.05674443 19.88975742-84.3612082 43.649833-25.44599883 25.94129766-39.77316387 57.18642539-43.22597168 93.31152012-2.22884648 23.32827685 2.06057197 45.76279219 10.68068409 67.40355938 1.36366084 3.42740742 0.84137344 4.86568037-2.43998351 6.66590273-28.76545635 15.77972549-57.45629971 31.69438945-86.03443125 47.81066484-4.45293106 2.51142099-7.32312598 1.98913447-10.8949957-1.47160986-18.15303516-17.59423535-38.2698044-32.47067549-60.95990654-43.84985801-34.99003388-17.54661094-69.78480557-17.57677324-104.74943994 0.04603711-23.23143984 11.70938232-43.7053957 27.12557109-62.16005478 45.31511865-3.27659502 3.23055791-6.06424043 3.57821982-10.16792227 1.29857344-29.61952998-16.46393731-59.30890927-32.79928711-89.13005156-48.89016299-3.93540644-2.12407207-4.28306836-3.83539395-2.75113301-7.70888848 11.17757021-28.27809404 14.16682792-57.3054873 7.09293955-87.08376709-9.19796133-38.72382802-30.17674161-69.47206875-62.98079151-92.00818476-22.19321602-15.24473965-46.82324092-23.79023877-73.69957529-25.72857334-2.25900879-0.1635126-3.63536982-0.61912442-4.04653096-3.27342041-2.94639521-19.05949599-5.76896661-38.1285167-6.54842724-57.42931201-1.02393633-25.28407354 2.7352582-50.15381045 6.55160274-75.02354825 0.40798653-2.65905879 1.77006006-3.07339541 4.03541894-3.24008261 12.18404356-0.89376152 24.10932568-3.1368955 35.71393272-7.05166435 39.42074003-13.30005498 69.07836972-38.33330362 88.00134081-75.24420997 20.62476826-40.22877568 22.22020371-81.77834971 5.4308294-123.84703564-1.23983526-3.10514502-0.75088652-4.34656846 2.13518408-5.94517852 28.30508174-15.66066357 56.56095088-31.40863945 84.7025209-47.36140225 4.13384326-2.34632109 6.72622734-1.93357177 10.00599697 1.39064766 18.52292197 18.78485888 39.16832783 34.76460937 62.70456709 46.91055323 35.81553252 18.48005948 71.45485312 18.32448428 107.15926114-0.34924922 23.75690097-12.42534375 44.48485722-28.78450576 63.0839786-47.93131407 3.11943252-3.208333 5.64037911-3.62266963 9.60753516-1.40334785 29.16550547 16.33058789 58.40879854 32.51988808 87.75369054 48.52027617 3.55281943 1.93833458 3.81951914 3.43851943 2.41458398 7.00880186-16.70523662 42.49254727-15.04471464 84.5247208 6.63256493 124.55982246 26.24609707 48.47900098 67.67978378 75.41724727 122.781825 80.70202705 2.7289081 0.26193692 3.73538145 1.18109795 4.12749405 3.70045722 3.38613223 21.80427891 6.45159023 43.63872099 6.82465166 65.65413692C866.61362041 418.75349648 863.5751501 440.59111318 860.18425596 462.39539297zM510.00451543 536.5505792c76.4157832 0.30162481 138.8790501-61.96955537 139.4457873-139.01875048 0.56356172-76.3506958-62.64106699-139.74106113-139.26957451-139.67121182-76.5808831 0.06826201-138.9933501 62.4854918-139.2521124 139.2600498C370.67144082 473.45548857 433.30615771 536.24736709 510.00451543 536.5505792zM418.40590537 397.89536631c-0.67151162-50.46972276 40.38276357-92.07009668 91.47160986-92.68128369 49.70772422-0.59689951 91.22554776 40.23353847 92.15740899 90.62229902 0.93979863 50.78722237-39.88746386 92.55904629-91.25094815 93.36549463C460.76034043 489.98610058 419.0853544 448.79371318 418.40590537 397.89536631z"  horiz-adv-x="1024" />

    
    <glyph glyph-name="qiehuan1" unicode="&#59110;" d="M854.7734375 269.43457031a26.3671875 26.3671875 0 1 0 0-52.734375H232.89013672l104.11083984-104.12402343a26.3671875 26.3671875 0 1 0-37.28320312-37.28320313L150.55859375 224.43896484000004l-0.76464844 0.80419922a26.52539063 26.52539063 0 0 0-0.54052734 0.61962891l1.31835937-1.42382813a26.65722656 26.65722656 0 0 0-4.29785156 5.62939453l-0.40869141 0.77783204a25.734375 25.734375 0 0 0-2.28076171 5.99853515l-0.11865235 0.56689453a24.2578125 24.2578125 0 0 0-0.52734375 3.42773438l-0.01318359 0.44824219a26.22216797 26.22216797 0 0 0 7.64648437 20.43457031c4.87792969 4.87792969 11.1796875 7.44873047 17.57373047 7.71240234H854.7734375zM724.29541016 692.70703125l149.1196289-149.1328125c0.47460938-0.46142578 0.92285156-0.94921875 1.34472657-1.45019531l-1.31835938 1.42382812a26.64404297 26.64404297 0 0 0 3.24316406-3.91552734c0.13183594-0.23730469 0.29003906-0.46142578 0.4350586-0.69873047a26.3671875 26.3671875 0 0 0-23.54589844-40.36816406H169.2265625a26.3671875 26.3671875 0 1 0 0 52.734375h621.89648438l-104.12402344 104.11083984a26.3671875 26.3671875 0 1 0 37.29638672 37.29638672z"  horiz-adv-x="1024" />

    
    <glyph glyph-name="icon_add" unicode="&#59153;" d="M512 753.140625a26.3671875 26.3671875 0 0 0 26.3671875-26.3671875v-316.40625h316.40625a26.3671875 26.3671875 0 1 0 0-52.734375h-316.40625v-316.40625a26.3671875 26.3671875 0 1 0-52.734375 0v316.40625h-316.40625a26.3671875 26.3671875 0 0 0 0 52.734375h316.40625v316.40625A26.3671875 26.3671875 0 0 0 512 753.140625z"  horiz-adv-x="1024" />

    
    <glyph glyph-name="icon_delete" unicode="&#59154;" d="M554.71484375 384l216.2109375 257.87109375a6.5390625 6.5390625 0 0 1-4.95703125 10.7578125h-65.75976563a13.44726563 13.44726563 0 0 1-10.12499999-4.74609375L511.68359375 435.31054688 333.23046875 647.93554688a13.18359375 13.18359375 0 0 1-10.125 4.69335937H257.3984375a6.5390625 6.5390625 0 0 1-5.00976563-10.81054688L468.65234375 384l-216.26367188-257.87109375a6.5390625 6.5390625 0 0 1 5.00976563-10.7578125h65.75976563a13.44726563 13.44726563 0 0 1 10.12499999 4.74609375l178.40039063 212.625 178.40039063-212.67773438a13.18359375 13.18359375 0 0 1 10.12499999-4.69335937h65.75976563a6.5390625 6.5390625 0 0 1 5.00976563 10.81054688L554.66210938 384z"  horiz-adv-x="1024" />

    
    <glyph glyph-name="icon_logout" unicode="&#59155;" d="M523.34 47.280000289999975a324.60000029 324.60000029 0 0 0-324.24000029 324.18c0 85.43999971 32.87999971 166.07999971 92.64000058 227.03999942a29.76000029 29.76000029 0 1 0 42.59999971-41.76 263.16 263.16 0 0 1-75.66000029-185.27999942 264.89999971 264.89999971 0 0 1 264.6-264.6 264.96 264.96 0 0 1 264.78 264.6 262.8 262.8 0 0 1-77.58 187.13999971 29.76000029 29.76000029 0 1 0 42.06000058 42.12 321.90000029 321.90000029 0 0 0 95.09999942-229.25999971 324.60000029 324.60000029 0 0 0-324.29999971-324.18z m0 374.27999942a29.76000029 29.76000029 0 0 0-29.76000029 29.76000029V687.59999971a29.76000029 29.76000029 0 0 0 59.58 0v-236.21999942a29.76000029 29.76000029 0 0 0-29.81999971-29.76000029z"  horiz-adv-x="1024" />

    
    <glyph glyph-name="icon_construct" unicode="&#59156;" d="M134.38891602 546.45483398l365.99304199-199.73144531c3.65844727-1.58203125 7.56408692-2.27416992 11.56860351-2.37304687 3.85620117 0 8.4539795 1.53259278 11.51916504 2.27416992l370.49194336 199.83032226a22.34619141 22.34619141 0 0 1 12.50793458 22.29675294 23.03833008 23.03833008 0 0 1-13.15063478 21.60461425L527.32592773 776.24487305a22.98889161 22.98889161 0 0 1-22.29675293 0l-369.79980468-185.88867188a23.68103028 23.68103028 0 0 1-13.84277344-21.60461426c0-10.03601075 4.59777833-17.69897461 13.05175781-22.29675293H134.38891602z m381.41784668 180.45043946l312.74780272-159.6862793L512 396.80456543 199.10388183 567.26843262l316.70288087 159.58740234v0.04943848z m372.81555175-317.79052735l-73.16894531 37.07885743-52.40478516-28.57543946 61.69921875-31.59118653-316.70288086-170.46386717L195.29711914 385.97753906l65.45654297 33.17321778-52.40478516 28.52600097-77.81616211-38.56201172c-17.69897461-9.24499512-18.44055176-34.70581055-0.74157715-43.95080566l365.993042-199.73144531a24.91699219 24.91699219 0 0 1 23.8293457-1e-8l369.79980469 199.73144532a24.62036133 24.62036133 0 0 1-0.79101563 44.00024414v-0.04943848z m0-172.73803711l-69.36218262 33.96423341-52.35534667-28.57543946 57.84301757-28.52600098L508.04492187 42.87451171999999l-312.74780273 170.41442871 60.90820313 27.73498535-52.45422364 28.57543945-73.1689453-33.17321777c-17.69897461-9.24499512-18.48999023-34.70581055-0.79101563-44.00024414l365.99304199-199.73144531c4.59777833-1.53259278 7.66296387-3.06518555 12.26074219-3.06518555a21.70349122 21.70349122 0 0 1 11.56860351 3.11462402l369.79980469 199.73144532a24.62036133 24.62036133 0 0 1-0.79101563 44.00024414v-0.04943848z"  horiz-adv-x="1024" />

    
    <glyph glyph-name="icon_password" unicode="&#59157;" d="M707.075 514.78125h-14.85V571.87500027A197.38124973 197.38124973 0 0 1 495.125 769.03124973 197.4375 197.4375 0 0 1 297.96874973 571.87500027v-57.09375027h-14.79374973A100.40625 100.40625 0 0 1 182.9375 414.48749973v-281.58749973c0-55.23750027 44.99999973-100.18124973 100.2375-100.18124973h423.9a100.40625 100.40625 0 0 1 100.2375 100.2375V414.48749973a100.34999973 100.34999973 0 0 1-100.2375 100.29375027zM353.20625 571.87500027A142.0875 142.0875 0 0 0 495.125 713.84999973 142.03124973 142.03124973 0 0 0 637.04375 571.87500027v-57.09375027H353.20625V571.87500027z m398.86874973-438.91875c0-24.80625-20.25-44.99999973-44.99999973-45.00000054H283.175a45.11250027 45.11250027 0 0 0-44.99999973 45.00000054V414.48749973c0 24.86250027 20.25 45.05625 44.99999973 45.05625h423.9c24.74999973 0 44.99999973-20.19374973 44.99999973-44.99999973v-281.58749973zM541.30624973 303.22500027c0-13.44374973-5.96250027-25.3125-15.1875-33.75v-38.92500054a31.05 31.05 0 1 0-62.04374973 0v38.98125a45.5625 45.5625 0 0 0-15.13124973 33.75 46.12500027 46.12500027 0 1 0 92.36249946 0z"  horiz-adv-x="1024" />

    
    <glyph glyph-name="sidebar_icon_down" unicode="&#59158;" d="M201.09378052 552.0859018900001a46.34857177 46.34857177 0 0 0 61.18011474 3.89328003l4.35676575-3.89328003L512 306.80926004l245.27664185 245.36933899a46.34857177 46.34857177 0 0 0 61.18011474 3.80058289l4.44946289-3.89328003a46.34857177 46.34857177 0 0 0 3.80058289-61.18011474l-3.80058289-4.26406861-278.09143066-278.09143066a46.34857177 46.34857177 0 0 0-61.18011475-3.89328003l-4.35676574 3.80058288-278.09143067 278.09143067a46.34857177 46.34857177 0 0 0 0 65.62957763z"  horiz-adv-x="1024" />

    
    <glyph glyph-name="icon_develop" unicode="&#59159;" d="M805.12072754 161.54943848000005c0 13.64501953 11.86523438 24.71923828 26.44958496 24.71923829 14.63378906 0 26.49902344-11.07421875 26.49902344-24.71923829v-57.10144043c0-20.4675293-17.79785156-37.07885742-39.74853516-37.07885742H156.24072266C134.29003906 67.36914062999995 116.4921875 83.98046875 116.4921875 104.44799805000002V672.99047852C116.4921875 693.45800782 134.29003906 710.06933594 156.24072266 710.06933594h662.08007812c21.95068359 0 39.74853516-16.61132813 39.74853516-37.07885742v-128.34228516H169.44079589V116.80761718999997H805.17016602v44.74182129z m-1e-8 432.53723144V660.63085938H169.39135742v-66.54418946H805.17016602zM563.56433106 494.76477052c4.69665528 13.84277344 18.93493653 20.96191406 31.78894042 15.91918944 12.85400391-4.99328614 19.47875977-20.26977539 14.83154297-34.11254883L511.01123047 183.79675293000003c-4.69665528-13.84277344-18.88549805-20.96191406-31.73950195-15.91918945-12.85400391 4.99328614-19.52819825 20.26977539-14.83154297 34.11254883l99.07470703 292.7746582z m103.96911621-53.49243165a28.17993164 28.17993164 0 0 0-5.14160157 26.05407715 25.51025391 25.51025391 0 0 0 18.44055177 17.79785156 23.73046875 23.73046875 0 0 0 23.58215331-8.25622559l97.8881836-116.97143554a28.13049317 28.13049317 0 0 0-1e-8-35.59570312l-97.88818359-116.97143555a23.73046875 23.73046875 0 0 0-23.58215332-8.25622559 25.51025391 25.51025391 0 0 0-18.44055176 17.79785156 28.13049317 28.13049317 0 0 0 5.14160157 26.00463868l83.05664062 99.22302246-83.05664062 99.17358399z m-261.62841797 0a28.13049317 28.13049317 0 0 1 5.14160156 26.00463867 25.51025391 25.51025391 0 0 1-18.44055176 17.79785156 23.73046875 23.73046875 0 0 1-23.53271484-8.20678711l-97.8881836-116.97143554a28.13049317 28.13049317 0 0 1 0-35.59570312l97.88818359-116.97143555a23.77990723 23.77990723 0 0 1 23.73046875-8.6517334 25.51025391 25.51025391 0 0 1 18.58886719 17.99560547 28.08105469 28.08105469 0 0 1-5.48767089 26.20239258L322.89782714 342.09875488l83.00720216 99.173584z"  horiz-adv-x="1024" />

    
    <glyph glyph-name="sidebar_icon_right" unicode="&#59160;" d="M425.02629357 101.84128070999998a43.44966777 43.44966777 0 0 0-3.64977214 57.35356105l3.64977214 4.08426894L654.96193609 393.30165274 425.02629357 623.2372945899999a43.44966777 43.44966777 0 0 0-3.64977214 57.35356173l3.64977214 4.08426895a43.44966777 43.44966777 0 0 0 57.35356173 3.64977216l4.08426895-3.64977216 260.69800729-260.69800727a43.44966777 43.44966777 0 0 0 3.56287264-57.35356173l-3.56287264-4.08426896-260.69800729-260.69800659a43.44966777 43.44966777 0 0 0-61.43783068 0z"  horiz-adv-x="1151" />

    
    <glyph glyph-name="sign_lock" unicode="&#59161;" d="M775.14285693 436.28571445h-58.28571386V628.28571416a109.71428555 109.71428555 0 0 1-109.71428555 109.71428555H394.57142862A109.71428555 109.71428555 0 0 1 284.85714307 628.28571416v-191.99999971H226.57142832a27.42857138 27.42857138 0 0 1-27.42857139-27.42857138v-329.14285752c0-15.17142832 12.25714307-27.42857138 27.4285714-27.42857139h548.5714286a27.42857138 27.42857138 0 0 1 27.42857139 27.42857139V408.85714307a27.42857138 27.42857138 0 0 1-27.42857139 27.42857138z m-428.57142802 191.99999971c0 26.48571416 21.51428555 47.99999971 47.99999971 47.9999997h212.5714289c26.48571416 0 47.99999971-21.51428555 47.9999997-47.9999997v-191.99999971h-308.57142831V628.28571416z m394.28571357-514.28571416H260.85714278v260.57142862h479.9999997v-260.57142862z m-263.99999971 119.14285693v-45.42857138c0-3.77142891 3.08571416-6.85714307 6.85714307-6.85714307h34.28571445a6.85714307 6.85714307 0 0 1 6.85714219 6.85714307v45.42857138a41.14285752 41.14285752 0 1 1-47.99999971 0z"  horiz-adv-x="1024" />

    
    <glyph glyph-name="icon_system" unicode="&#59162;" d="M491.32059131 403.49288527H273.0002788A156.96010034 156.96010034 0 0 0 116.4921875 560.50948683V779.5078125h218.3203125a156.96010034 156.96010034 0 0 0 156.5080913-157.07310278v-218.94182445zM168.69921875 727.18777881v-166.67829198c0-57.74414063 46.78292433-104.69656786 104.30106006-104.69656863h166.11328125v166.67829274A104.64006663 104.64006663 0 0 1 334.8125 727.18777881H168.69921875z m582.30050245-323.75139477H532.67940869V622.54771216A156.96010034 156.96010034 0 0 0 689.1875 779.5078125H907.5078125v-218.99832567a156.96010034 156.96010034 0 0 0-156.5080913-157.07310279z m-166.11328125 52.37653415h166.11328125a104.64006663 104.64006663 0 0 1 104.35756127 104.69656864V727.18777881h-166.11328124A104.64006663 104.64006663 0 0 1 584.88643995 622.43470972v-166.67829197zM334.8125-11.5078125H116.4921875v218.99832567a156.96010034 156.96010034 0 0 0 156.5080913 157.07310279h218.3203125v-219.0548269A156.96010034 156.96010034 0 0 0 334.8125-11.5078125z m-166.11328125 52.3200337h166.11328125A104.64006663 104.64006663 0 0 1 439.11356005 145.56529028v166.67829197H273.0002788a104.64006663 104.64006663 0 0 1-104.35756127-104.69656786v-166.67829196zM907.5078125-11.5078125h-218.3203125a156.96010034 156.96010034 0 0 0-156.5080913 157.01660156V364.50711473h218.3203125A156.96010034 156.96010034 0 0 0 907.5078125 207.49051316999999V-11.5078125zM584.88643995 312.1870818v-166.67829274c0-57.74414063 46.78292433-104.69656786 104.30106005-104.69656786h166.11328125v166.67829197A104.64006663 104.64006663 0 0 1 750.9997212 312.24358225000003H584.88643995z"  horiz-adv-x="1024" />

    
    <glyph glyph-name="icon_product" unicode="&#59163;" d="M834.99804688 654.421875L558.14257813 793.53515625a92.44335938 92.44335938 0 0 1-92.28515626 0l-276.85546874-139.79882813c-28.4765625-16.34765625-46.03710938-46.66992188-46.14257813-79.47070312v-328.16601563a92.07421875 92.07421875 0 0 1 46.14257812-80.15624999l276.85546876-138.16406251c14.29101563-8.4375 30.63867188-12.91992188 47.30273437-12.91992187 15.71484375-0.26367188 31.21875 3.53320313 44.98242187 11.07421875l276.85546876 140.6953125c28.4765625 16.40039063 46.03710938 46.66992188 46.14257812 79.47070313V574.265625a92.07421875 92.07421875 0 0 1-46.14257813 80.15625z m-622.8984375-40.97460938L488.95507812 753.93164063A46.1953125 46.1953125 0 0 0 512 760.15429688c8.80664063 0 17.40234375-2.37304688 24.890625-6.90820313l276.85546875-138.1640625c4.21875-2.79492188 8.06835938-6.1171875 11.33789063-9.9140625L512 433.359375l-311.92382813 170.859375a39.4453125 39.4453125 0 0 0 10.38867188 9.22851563h1.58203125z m0-407.21484374a46.03710938 46.03710938 0 0 0-23.09765625 39.86718749V557.70703125l299.953125-163.265625v-327.05859375h-1.63476563l-275.2734375 138.84960938z m622.8984375 39.86718749c0-15.8203125-8.12109375-30.48046875-21.46289063-38.91796875l-278.4375-140.69531249V394.44140625l299.90039063 164.16210938v-312.50390626z"  horiz-adv-x="1024" />

    
    <glyph glyph-name="sign_User" unicode="&#59164;" d="M821.97924805 158.90952411a334.58216059 334.58216059 0 0 1-72.10747202 106.87435404 336.02169291 336.02169291 0 0 1-106.87435405 72.15109398l-1.09055436 0.43622189A221.81881205 221.81881205 0 0 1 512 740.04427591a221.81881205 221.81881205 0 0 1-129.90686762-401.76032583l-1.0469324-0.4362219a333.14262827 333.14262827 0 0 1-106.91797601-72.10747201 336.02169291 336.02169291 0 0 1-98.49889411-230.45600455 7.1540382 7.1540382 0 0 1 7.1540382-7.32852754h53.65528797c3.92599633 0 7.11041623 3.14079721 7.1976609 6.97954959a266.70604015 266.70604015 0 0 0 78.51993307 182.77695646A266.61879621 266.61879621 0 0 0 512 296.31940786999996c71.75849478 0 139.11114865-27.91819835 189.84375-78.60717774a266.70604015 266.70604015 0 0 0 78.51993307-182.77695646c0.08724467-3.92599633 3.22804188-6.97954958 7.15403893-6.97954959h53.65528725a7.1540382 7.1540382 0 0 1 7.19766089 7.32852754 333.40436154 333.40436154 0 0 1-26.39142209 123.62527249zM512 364.37001691a152.85213725 152.85213725 0 0 0-108.79373023 45.06171672 152.85213725 152.85213725 0 0 0-45.06171672 108.79373023c0 41.04847645 16.00934201 79.69773211 45.06171672 108.79373024A152.85213725 152.85213725 0 0 0 512 672.08091082c41.04847645 0 79.69773211-16.05296397 108.79373023-45.10533943a152.85213725 152.85213725 0 0 0 45.06171672-108.7937295c0-41.04847645-16.00934201-79.69773211-45.06171672-108.79373023A152.85213725 152.85213725 0 0 0 512 364.37001691z"  horiz-adv-x="1024" />

    
    <glyph glyph-name="icon_module" unicode="&#59165;" d="M853.0859375-37.875H283.92382812c-15.66210938 0-27.94921875 12.91992188-27.94921874 29.42578125V170.42578125c-6.75-4.74609375-14.60742188-8.27929688-22.41210938-10.65234375H232.5078125c-10.07226563-3.48046875-21.3046875-4.74609375-31.37695313-4.74609375C139.43164062 155.1328125 90.125 208.02539062000005 90.125 271.5703125c0 64.70507813 50.4140625 116.54296875 110.953125 116.54296875 11.1796875 0 22.359375-2.37304688 33.59179688-5.85351563 1.0546875 0 2.26757813-1.16015625 3.32226562-1.16015624 5.64257813-2.37304688 11.23242188-4.74609375 15.66210938-7.01367188l2.26757812-1.16015625V589.29492188c0 16.453125 12.33984375 29.47851563 27.94921875 29.47851562h182.61914063l-3.37500001 7.01367187a95.87109375 95.87109375 0 0 0-12.28710937 29.42578125v1.265625a111.5859375 111.5859375 0 0 0-4.4296875 32.95898438C446.3984375 754.08984375 496.8125 805.875 557.29882813 805.875c61.59375 0 110.953125-52.99804688 110.95312499-116.54296875 0-11.75976563-2.26757813-23.57226563-5.64257812-35.33203125 0-1.16015625-1.0546875-2.37304688-1.0546875-3.53320313-2.26757813-5.85351563-4.4296875-11.75976563-6.69726563-16.40039062l-5.64257812-14.18554688h203.92382813c15.66210938 0 28.00195313-12.91992188 28.00195312-29.42578124v-263.56640626a31.11328125 31.11328125 0 0 0-12.33984375-24.73242187c-7.85742188-5.85351563-17.9296875-5.85351563-26.89453125-2.37304687l-48.14648438 22.359375c-1.0546875 0-1.0546875 1.10742188-2.26757812 1.10742187-2.26757813 1.16015625-5.58984375 3.53320313-8.96484375 4.74609375h-1.16015625c-5.64257813 2.37304688-11.23242188 2.37304688-16.875 2.37304688-30.21679688 0-54.84375-25.89257813-54.84375-57.63867188 0-31.79882813 24.62695313-57.63867188 54.84375-57.63867188 5.64257813 0 11.23242188 1.10742188 15.66210938 2.37304688 5.64257813 1.10742188 10.07226563 4.74609375 14.60742187 7.01367187 1.0546875 1.16015625 2.26757813 1.16015625 3.32226563 2.37304688l42.609375 21.19921875c8.96484375 4.74609375 18.984375 3.48046875 26.89453125-1.16015625 7.85742188-4.640625 13.39453125-15.29296875 13.39453125-24.6796875v-230.66015625c0.05273438-16.50585938-12.234375-29.42578125-27.94921875-29.42578125zM310.29101562 14.859375H828.40625v156.09375h-1.0546875a126.87890625 126.87890625 0 0 0-28.31835938-14.44921875h-1.16015624a97.03125 97.03125 0 0 0-31.64062501-4.79882813c-62.2265625 0-112.0078125 54.05273438-112.00781249 118.86328126 0 66.0234375 50.88867188 118.91601563 112.0078125 118.91601562 11.33789063 0 22.5703125-2.42578125 33.90820312-6.01171875 1.10742188 0 2.26757813-1.16015625 3.375-1.16015625 5.6953125-2.42578125 11.33789063-4.8515625 15.8203125-7.171875l7.96289063-3.5859375v191.953125H606.76367188a29.21484375 29.21484375 0 0 0-23.78320313 13.18359375c-5.6953125 8.4375-5.6953125 19.1953125-2.3203125 28.79296875l23.78320312 57.63867188c0 1.16015625 1.10742188 1.16015625 1.10742188 2.42578125 1.10742188 2.42578125 3.375 6.01171875 4.48242187 9.59765625v1.16015625a48.9375 48.9375 0 0 1 2.3203125 18.03515625C612.35351563 726.7734375 587.41015625 753.140625 556.9296875 753.140625 526.34375 753.140625 501.453125 726.66796875 501.453125 694.34179688c0-6.01171875 1.0546875-12.0234375 2.26757813-16.76953126 1.10742188-6.01171875 4.48242188-10.86328125 6.74999999-15.609375 1.10742188-1.16015625 1.10742188-2.42578125 2.3203125-3.5859375l22.57031251-51.6796875a32.37890625 32.37890625 0 0 0-1.05468751-28.74023437 28.74023438 28.74023438 0 0 0-23.83593749-14.44921875H310.29101562v-235.30078125a31.79882813 31.79882813 0 0 0-12.44531249-25.15429688c-7.91015625-6.01171875-18.08789063-6.01171875-27.15820313-2.42578124l-42.97851563 20.40820312c-1.0546875 0-1.0546875 1.21289063-2.26757812 1.21289063-2.26757813 1.16015625-5.6953125 3.5859375-9.0703125 4.79882812h-1.0546875c-5.6953125 2.42578125-11.390625 2.42578125-17.03320313 2.42578125-30.5859375 0-55.42382813-26.41992188-55.42382812-58.79882813 0-32.484375 24.890625-58.8515625 55.37109375-58.8515625 5.6953125 0 11.390625 1.21289063 15.8203125 2.42578125 5.6953125 1.16015625 10.17773438 4.8515625 14.765625 7.171875 1.0546875 1.21289063 2.26757813 1.21289063 3.375 2.42578125l37.3359375 19.1953125a27.36914063 27.36914063 0 0 0 27.15820313-1.16015625c7.91015625-6.01171875 13.5-15.609375 13.49999999-25.20703125V14.859375h0.10546876z"  horiz-adv-x="1024" />

    
    <glyph glyph-name="tianqi" unicode="&#58881;" d="M100.512 211.666c-0.339 0-0.688 0-1.053 0.027-14.718 0.561-26.179 12.96-25.607 27.69 3.74 96.274 65.525 278.347 272.617 278.347 171.604 0 231.93-111.785 246.337-146.037a191.526 191.526 0 0 0 4.233-11.016c28.444 16.175 71.019 27.455 130.082 11.408 6.175-2.11 104.153-38.291 104.153-133.744 0-14.73-11.945-26.673-26.673-26.673-14.729 0-26.673 11.945-26.673 26.673 0 57.646-64.17 81.935-66.904 82.937-70.224 19.028-104.388-17.557-112.226-27.726a36.235 36.235 0 0 0-5.3-6.916c-9.469-9.703-24.721-10.747-35.452-2.384-10.68 8.322-13.43 23.325-6.41 34.891 0.574 10.303-7.305 41.652-33.197 73.092-27.116 32.913-78.953 72.151-171.968 72.151-208.095 0-218.96-217.812-219.322-227.083-0.545-14.368-12.372-25.635-26.634-25.635zM741.162 327.384a26.67 26.67 0 0 0-11.539 2.63c-13.285 6.382-18.874 22.326-12.491 35.595 14.731 30.635 16.643 65.16 5.393 97.222-11.254 32.066-34.32 57.814-64.951 72.532-63.245 30.333-139.423 3.646-169.766-59.612-6.383-13.297-22.349-18.845-35.595-12.488-13.272 6.367-18.871 22.31-12.491 35.592 43.085 89.75 151.221 127.7 240.943 84.592 43.487-20.877 76.227-57.449 92.197-102.956 15.967-45.517 13.256-94.527-7.647-137.989-4.596-9.559-14.128-15.121-24.053-15.121zM403.019 569.37a26.573 26.573 0 0 0-13.075 3.438l-61.162 34.489c-12.827 7.239-17.36 23.507-10.132 36.337 7.252 12.827 23.534 17.321 36.337 10.132l61.159-34.486c12.83-7.242 17.362-23.51 10.133-36.337-4.897-8.688-13.946-13.572-23.261-13.572zM586.527 650.587c-14.729 0-26.673 11.945-26.673 26.673v83.118c0 14.731 11.945 26.673 26.673 26.673 14.731 0 26.673-11.941 26.673-26.673v-83.119c0-14.729-11.941-26.672-26.673-26.672zM777.928 587.537a26.586 26.586 0 0 0-18.858 7.815c-10.421 10.418-10.421 27.311 0 37.718l61.134 61.109c10.418 10.418 27.297 10.418 37.716 0 10.421-10.418 10.421-27.311 0-37.718l-61.134-61.109a26.59 26.59 0 0 0-18.859-7.815zM927.625 426.368l-56.459 0.024c-14.729 0.013-26.673 11.958-26.66 26.687 0.013 14.731 11.945 26.66 26.673 26.66l56.459-0.024c14.729-0.013 26.673-11.958 26.66-26.687-0.013-14.732-11.942-26.66-26.673-26.66zM890.95 108.18l-792.819 0.009c-14.731 0-26.673 11.945-26.673 26.673 0 14.731 11.941 26.673 26.673 26.673l792.819-0.01c14.731 0 26.673-11.945 26.673-26.673 0-14.731-11.941-26.672-26.673-26.672zM774.02-14.716l-558.937 0.013c-14.729 0-26.673 11.945-26.673 26.673 0 14.731 11.945 26.673 26.673 26.673l558.937-0.013c14.732 0 26.673-11.941 26.673-26.673 0-14.73-11.942-26.673-26.673-26.673z"  horiz-adv-x="1024" />

    
    <glyph glyph-name="xuqiu" unicode="&#58919;" d="M255.4 701.5l-92.2 87.2-49.7-47 92.2-87.2 49.7 47z m655.1 40.2l-44.9 42.5-4.7 4.5-92.2-87.2 49.7-47 92.1 87.2zM548.7 896h-70.9v-123h70.9V896zM0 379.5h130.1v67.1H0v-67.1z m513.2 346.6h-4.7c-85.1-2.2-167.9-33.5-229.4-93.9-63.9-60.4-99.3-138.6-99.3-221.3 0-125.2 66.2-230.3 179.7-279.5v-147.6h307.4V131.4c111.2 49.2 179.7 152 179.7 279.5 0 82.7-35.5 161-99.3 221.3-63.8 62.6-146.6 93.9-234.1 93.9z m115.9-534.4L596 173.8v-120.7H428V173.8l-33.1 17.9C302.7 234.2 248.3 316.9 248.3 413c0 136.4 118.2 248.2 262.5 248.2S773.3 549.4 773.3 413c2.4-96.1-52-178.8-144.2-221.3z m264.8 252.7v-67.1H1024v67.1H893.9zM359.5-128h307.4v67.1H359.5v-67.1z m0 507.5h118.2v-281.7h70.9V379.5h118.2v67.1H359.5v-67.1z"  horiz-adv-x="1024" />

    
    <glyph glyph-name="renshu" unicode="&#59127;" d="M262.4 326.4c12.8 0 25.6 12.8 25.6 25.6s-12.8 25.6-25.6 25.6-32 6.4-44.8 25.6c-12.8 19.2-19.2 44.8-19.2 70.4 0 25.6 6.4 51.2 19.2 70.4 12.8 19.2 32 25.6 44.8 25.6 12.8 0 25.6 12.8 25.6 25.6s-12.8 25.6-25.6 25.6c-32 0-64-19.2-83.2-44.8-19.2-25.6-32-64-32-102.4s12.8-76.8 32-102.4c0-6.4 6.4-6.4 12.8-12.8h-6.4c-25.6-12.8-44.8-32-64-57.6-38.4-44.8-57.6-108.8-57.6-179.2 0-12.8 12.8-25.6 25.6-25.6s25.6 12.8 25.6 25.6c0 115.2 64 204.8 147.2 204.8z m640-25.6c-19.2 25.6-38.4 44.8-64 57.6H832l12.8 12.8c19.2 25.6 32 64 32 102.4s-12.8 76.8-32 102.4c-19.2 32-51.2 44.8-83.2 44.8-12.8 0-25.6-12.8-25.6-25.6s12.8-25.6 25.6-25.6c19.2 0 32-6.4 44.8-25.6 12.8-19.2 19.2-44.8 19.2-70.4s-6.4-51.2-19.2-70.4c-12.8-19.2-32-25.6-44.8-25.6-12.8 0-25.6-12.8-25.6-25.6s12.8-25.6 25.6-25.6c83.2 0 153.6-89.6 153.6-204.8 0-12.8 12.8-25.6 25.6-25.6s25.6 12.8 25.6 25.6c-6.4 70.4-25.6 128-64 179.2z m-166.4-12.8c-32 38.4-76.8 64-115.2 76.8 44.8 32 76.8 89.6 76.8 153.6C697.6 620.8 614.4 704 518.4 704S339.2 620.8 339.2 518.4c0-64 32-115.2 76.8-153.6-44.8-12.8-83.2-38.4-121.6-76.8-57.6-64-89.6-140.8-89.6-230.4v-32c0-12.8 12.8-25.6 25.6-25.6h576c12.8 0 25.6 12.8 25.6 25.6v32c0 89.6-32 172.8-96 230.4zM390.4 518.4c0 76.8 57.6 134.4 128 134.4s128-57.6 128-134.4S588.8 384 518.4 384s-128 57.6-128 134.4z m390.4-467.2H256v6.4c0 153.6 115.2 275.2 262.4 275.2 140.8 0 262.4-121.6 262.4-281.6z"  horiz-adv-x="1024" />

    
    <glyph glyph-name="gongsi" unicode="&#59012;" d="M141.64862568 41.32178898999996h754.70241508c15.09417174 0 25.15643818-10.06303891 25.15643818-25.15721066s-10.06226644-25.15643818-25.15643818-25.15643818H141.64862568c-15.09417174 0-25.15643818 10.06226644-25.15643818 25.15643818 0 12.57821909 10.06303891 25.15643818 25.15643818 25.15643819zM569.31348206-11.5078125h-352.19476936c-30.18834348 0-50.31287636 20.12530535-50.31287637 50.31364883v583.636164c0 22.641258 15.09417174 42.76656258 35.21947709 50.31364885L556.73526297 778.41407968c27.67239083 5.03113283 50.31364883-7.54708626 60.37668774-32.70429615l2.51518018-5.0311336v-701.8728136c0-30.18834348-20.12530535-50.31364883-50.31364883-50.31364883z m-352.19476936 633.94981284v-583.63616401h352.19476936V728.1004308500001l-352.19476936-105.65843052zM317.74601036 544.45595991H468.68695686c15.09417174 0 25.15721065-10.06226644 25.15721066-25.15643818s-10.06303891-25.15721065-25.15721066-25.15721066H317.74601036c-15.09417174 0-25.15643818 10.06303891-25.15643818 25.15721066 0 12.57821909 10.06226644 25.15643818 25.15643818 25.15643818zM468.68695686 494.14231107H317.74523788c-15.09417174 0-25.15643818 10.06303891-25.15643818 25.15721065s10.06226644 25.15643818 25.15643818 25.15643819H468.68695686c15.09417174 0 25.15721065-10.06226644 25.15721066-25.15643819s-10.06303891-25.15721065-25.15721066-25.15721065zM317.74523788 519.29952172H468.68695686 317.74601036zM317.74601036 393.51578588H468.68695686c15.09417174 0 25.15721065-10.06303891 25.15721066-25.15721066s-10.06303891-25.15643818-25.15721066-25.15643817H317.74601036c-15.09417174 0-25.15643818 10.06303891-25.15643818 25.15643817 0 12.57899156 10.06226644 25.15721065 25.15643818 25.15721066zM468.68695686 343.20213705000003H317.74523788c-15.09417174 0-25.15643818 10.06303891-25.15643818 25.15643817s10.06226644 25.15721065 25.15643818 25.15721066H468.68695686c15.09417174 0 25.15721065-10.06303891 25.15721066-25.15721066s-10.06303891-25.15643818-25.15721066-25.15643817zM317.74523788 368.35857522000003H468.68695686 317.74601036zM317.74601036 242.57483936999995H468.68695686c15.09417174 0 25.15721065-10.06226644 25.15721066-25.15643818s-10.06303891-25.15643818-25.15721066-25.15643817H317.74601036c-15.09417174 0-25.15643818 10.06226644-25.15643818 25.15643817 0 12.57821909 10.06226644 25.15721065 25.15643818 25.15721066zM468.68695686 192.26196302000005H317.74523788c-15.09417174 0-25.15643818 10.06226644-25.15643818 25.15643817s10.06226644 25.15721065 25.15643818 25.15721066H468.68695686c15.09417174 0 25.15721065-10.06303891 25.15721066-25.15721066s-10.06303891-25.15643818-25.15721066-25.15643817zM317.74523788 217.41840119000005H468.68695686 317.74601036zM695.0972179 242.57483936999995h50.31364884c15.09417174 0 25.15643818-10.06226644 25.15643817-25.15643818s-10.06226644-25.15643818-25.15643817-25.15643817h-50.31364884c-15.09417174 0-25.15643818 10.06226644-25.15643818 25.15643817 0 12.57821909 10.06226644 25.15721065 25.15643818 25.15721066zM745.41086674 192.26196302000005h-50.31364884c-15.09417174 0-25.15643818 10.06226644-25.15643818 25.15643817s10.06226644 25.15721065 25.15643818 25.15721066h50.31364884c15.09417174 0 25.15643818-10.06303891 25.15643817-25.15721066s-10.06226644-25.15643818-25.15643817-25.15643817z m-50.31364884 25.15643817h50.31364884-50.31364884zM871.19460258-11.5078125H619.62713089c-30.18834348 0-50.31364883 20.12530535-50.31364883 50.31364883V541.94000725l276.72390987-181.12851752c17.6101244-7.54708626 25.15721065-27.67239083 25.15721065-42.76656334V-11.5078125zM619.62713089 451.37652097v-412.57145711h201.25305038V320.56165228l-201.25305038 130.81564117z"  horiz-adv-x="1045" />

    
    <glyph glyph-name="youenservices" unicode="&#58923;" d="M313.55 754.4484375c-94.99306641 0-172.00634766-77.01328125-172.00634766-172.00634766 0-94.98515625 77.01328125-171.97470703 172.00634766-171.97470703l172.00634766 0L485.55634766 582.44208984C485.5484375 677.43515625 408.53515625 754.4484375 313.55 754.4484375L313.55 754.4484375 313.55 754.4484375zM432.60576172 463.38632812L313.55 463.38632812c-65.64638672 0-119.06367187 53.41728516-119.06367188 119.05576172 0 65.67011719 53.41728516 119.07949219 119.06367188 119.07949219 65.66220703 0 119.05576172-53.41728516 119.05576172-119.07949219L432.60576172 463.38632812 432.60576172 463.38632812 432.60576172 463.38632812zM882.45634766 582.44208984c0 94.99306641-77.01328125 172.00634766-172.00634766 172.00634766-94.98515625 0-172.00634766-77.01328125-172.00634766-172.00634766l0-171.97470703 172.00634766 0C805.44306641 410.45947266 882.45634766 487.45693359 882.45634766 582.44208984L882.45634766 582.44208984 882.45634766 582.44208984zM591.39423828 582.44208984c0 65.67011719 53.39355469 119.07949219 119.05576172 119.07949219 65.63847656 0 119.05576172-53.41728516 119.05576172-119.07949219 0-65.63847656-53.41728516-119.05576172-119.05576172-119.05576172L591.39423828 463.38632812 591.39423828 582.44208984 591.39423828 582.44208984 591.39423828 582.44208984zM141.54365234 185.55791016c0-95.00888672 77.01328125-172.00634766 172.00634766-172.00634766 94.98515625 0 172.00634766 76.99746094 172.00634766 172.00634766L485.55634766 357.54052734000004 313.55 357.54052734000004C218.55693359 357.54052734000004 141.54365234 280.54306641000005 141.54365234 185.55791016L141.54365234 185.55791016 141.54365234 185.55791016zM432.60576172 185.55791016c0-65.67011719-53.39355469-119.07949219-119.05576172-119.07949219-65.64638672 0-119.06367187 53.409375-119.06367187 119.07949219 0 65.63847656 53.41728516 119.05576172 119.06367187 119.05576172l119.05576172 0L432.60576172 185.55791016 432.60576172 185.55791016 432.60576172 185.55791016zM710.45791016 357.54052734000004L538.4515625 357.54052734000004l0-171.98261718c0-94.98515625 77.02119141-172.00634766 172.00634766-172.00634766 94.98515625 0 172.00634766 77.02119141 172.00634765 172.00634766C882.45634766 280.54306641000005 805.44306641 357.54052734000004 710.45791016 357.54052734000004L710.45791016 357.54052734000004 710.45791016 357.54052734000004zM710.45791016 66.47841797000001c-65.66220703 0-119.05576172 53.409375-119.05576172 119.07949219L591.40214844 304.61367187999997l119.05576172 0c65.63847656 0 119.05576172-53.41728516 119.05576172-119.05576172C829.51367188 119.88779296999996 776.09638672 66.47841797000001 710.45791016 66.47841797000001L710.45791016 66.47841797000001 710.45791016 66.47841797000001zM710.45791016 66.47841797000001"  horiz-adv-x="1024" />

    
    <glyph glyph-name="0_0_2" unicode="&#58884;" d="M720.9 442.3H396.8V597.8c-0.4 61.5 47.5 112.6 108.9 116.4 62.9 3.5 116.7-44.6 120.2-107.4 0.1-1.9 0.2-3.7 0.2-5.6V552c-0.1-24 19.3-43.6 43.3-43.7h0.5c10.6 0.4 20.8 4.7 28.4 12.1 7.9 7.8 12.3 18.5 12.4 29.6v51.2c-0.9 107.8-88 195.3-196 196.6-111.4 0.4-202.1-89.5-202.5-200.8v-154.5h-10.3c-45.2 0.3-82.1-36.2-82.4-81.4v-203.8c0.6-103.9 85.4-187.6 189.3-187h205.1c104-0.6 188.7 83.1 189.3 187V361.1c-0.3 45.1-37.1 81.4-82.3 81.2zM553.7 163c-0.5-23.3-19.8-41.9-43.2-41.4-22.7 0.5-41 18.7-41.4 41.4v86.4c0.2 23.2 19.1 41.9 42.3 41.7 11.2 0 21.9-4.4 29.9-12.2 7.9-7.8 12.3-18.5 12.3-29.6l0.1-86.3z"  horiz-adv-x="1024" />

    
    <glyph glyph-name="0_0_3" unicode="&#58887;" d="M949.3 635.1L520.5 796.2c-3.9 1.8-8.4 2.1-12.7 0.5L77.9 635.1c-8.7-3.3-13.2-13.2-10.1-22.2 3.2-9 12.8-13.7 21.5-10.4H109V39c0-10.6 7.7-19.2 17.2-19.2H901c9.5 0 17.2 8.6 17.2 19.2V602.5h19.6c8.7-3.3 18.4 1.4 21.5 10.4 3.2 9-1.3 18.9-10 22.2zM615.2 496v86.5h110.4v-96.1H615.2V496z m-470.6-9.6v96.1H255v-96.1H144.6z m218.8-381.6c0-10.3-7.3-18.6-16.4-18.6H216c-9 0-16.3 8.3-16.3 18.6v89.6c0 10.3 7.3 18.6 16.3 18.6h131c9 0 16.4-8.3 16.4-18.6v-89.6z m0 196.5c0-10.3-7.3-18.6-16.4-18.6H216c-9 0-16.3 8.3-16.3 18.6v89.6c0 10.3 7.3 18.6 16.3 18.6h131c9 0 16.4-8.3 16.4-18.6v-89.6z m-52.7 185.1h-9.2v96.1h110.4v-96.1H310.7z m277.5-381.6c0-10.3-7.3-18.6-16.3-18.6H440.8c-9 0-16.3 8.3-16.3 18.6v89.6c0 10.3 7.3 18.6 16.3 18.6h131.1c9 0 16.3-8.3 16.3-18.6v-89.6z m0 196.5c0-10.3-7.3-18.6-16.3-18.6H440.8c-9 0-16.3 8.3-16.3 18.6v89.6c0 10.3 7.3 18.6 16.3 18.6h131.1c9 0 16.3-8.3 16.3-18.6v-89.6z m-19.4 271.6v-86.5H458.4v96.1h110.4v-9.6z m244.3-468.1c0-10.3-7.3-18.6-16.3-18.6H665.7c-9 0-16.3 8.3-16.3 18.6v89.6c0 10.3 7.3 18.6 16.3 18.6h131.1c9 0 16.3-8.3 16.3-18.6v-89.6z m69.4 468.1v-86.5H772.1v96.1h110.4v-9.6z"  horiz-adv-x="1024" />

    
    <glyph glyph-name="0_0_1" unicode="&#58889;" d="M512 831.5c-247.4 0-448-200.6-448-448s200.6-448 448-448 448 200.6 448 448-200.6 448-448 448z m-79.1-202.6c23.5 16.3 51.5 25 80.1 25 2.2 0 4.4-0.1 6.6-0.2 66.6-3 121.9-52.5 132.4-118.4 12.1-76.7-40.3-148.8-117-160.9-76.7-12.1-148.8 40.3-160.9 117-8.4 53.3 14.4 106.8 58.8 137.6v-0.1z m280-540.1c-121.1-83.8-281.5-83.7-402.4 0.4-37.4 25.6-57.3 70.1-51.6 115.1 6.3 38.2 20.8 74.5 42.6 106.5 9.8 15 25.2 25.3 42.8 28.6 56.7 10.9 65.9-47.4 169.6-46.8 102.1 0.2 111 57.7 167.6 46.2 34.6-7 50.9-35.6 65.2-73.7 6.9-18 12.4-36.6 16.5-55.5 8.5-46.7-11.2-94.1-50.3-120.8z"  horiz-adv-x="1024" />

    
    <glyph glyph-name="1_1_9" unicode="&#58908;" d="M303.3 830.6l-46.4-44.8 417.4-402.3-417.4-402.3 46.4-44.8 463.8 447.1z"  horiz-adv-x="1024" />

    
    <glyph glyph-name="1_1_10" unicode="&#58909;" d="M92 831.5v-112h840v112H92z m336-504h504v112H428v-112z m-112 224l-224-168 224-168v336z m-224-616h840v112H92v-112z"  horiz-adv-x="1024" />

    
    <glyph glyph-name="1_1_6" unicode="&#58910;" d="M136.4 160.3h751.1c14.9 0 28.3 6.3 38.1 16.5s15.8 24.2 15.8 39.7V641.1c0 15.5-6.1 29.5-15.8 39.7-9.8 10.2-23.3 16.5-38.1 16.5H136.4c-14.9 0-28.3-6.3-38.1-16.5s-15.8-24.2-15.8-39.7v-424.7c0-15.5 6.1-29.5 15.8-39.7 9.8-10.1 23.3-16.4 38.1-16.4z m288.3 297.9c0 7.4 3.7 14.4 9.9 18.5l60.3 39.8c11.2 7.4 25.8 7 36.5-1l86.7-64.1 114.3 108.2c1.8 1.7 4.1 2.6 6.5 2.6 5.3 0 9.6-4.3 9.6-9.6v-51.5c0-6.1-2.5-11.9-6.9-16.1l-99-93.8c-5.9-5.6-13.8-8.8-22-8.8-6.9 0-13.5 2.2-19 6.4l-90.3 66.8-71.9-47.6c-1.5-1-3.4-1.6-5.2-1.6-5.3 0-9.6 4.2-9.6 9.5v42.3zM292.7 569c0.2 12.2 10.2 21.9 22.4 21.7h19.6c12.2 0.2 22.2-9.5 22.4-21.7v-226c0.2-12.6 10.6-22.6 23.1-22.4h346.2c12.2 0.2 22.2-9.5 22.4-21.7v-18.7c-0.2-12.2-10.2-21.9-22.4-21.7h-391c-23.3-0.4-42.4 18.2-42.8 41.5V569z m648.8-461.9h-859c-10.3 0-18.7-8.4-18.7-18.7 0-10.3 8.4-18.7 18.7-18.7h859c10.3 0 18.7 8.4 18.7 18.7 0 10.4-8.4 18.7-18.7 18.7z"  horiz-adv-x="1024" />

    
    <glyph glyph-name="1_1_12" unicode="&#58911;" d="M881.5 208.1c-33.2 47.3-89.2-12.5-110.3 253.3-9.5 119.6-53.4 194.8-159.2 248-8.2 3-13.2 11.3-12.1 20.1 0.1 3.8 0 7.7-0.4 11.5-4.8 54.6-52.5 95-106.5 90.1-54-4.8-94-53.1-89.2-107.7 1.1-6.8-2.7-13.5-9-16.1-13.3-6.8-26.1-14.6-38.2-23.4-153-117.4-91.3-233-131.1-378.6-33.2-121.3-93.4-73.6-93-129.2 0.6-76.7 91.9-75 676.4-63.4 56 1 104.1 50.6 72.6 95.4zM601.6 66.2c-1 7.2-7.6 12.2-14.7 11.2-52.6-0.9-105.1-1.2-157.7-1.2-6.7 0.8-12.9-3.9-13.9-10.7-15.7-48.8 8.7-101.5 55.8-120.7 35.1-16.1 76.4-8.7 104.1 18.5 28.4 25.7 38.8 66.1 26.5 102.6-0.1 0.2-0.1 0.2-0.1 0.3z"  horiz-adv-x="1024" />

    
    <glyph glyph-name="1_1_15" unicode="&#58912;" d="M959.1 425c0 42.7-38.6 43.9-73 48.8-33 4.9-35.3 32.8-49.7 62.5-25.6 53.6 71.7 81.4 21.2 131.5-50.5 50.1-78.1 91.3-117.2 62.5-26.2-19.2-44.9-39-74.4-25.2-30 14.3-58.4 16.7-63.1 49.3-12.6 84.2-17.9 72.2-132.6 72.2-71.4 0-22.6-87.8-78.8-107.6-31.3-11.2-53.4-29.3-79.8-9.5-68.7 50.6-62.3 40.6-145.4-41.8-30-29.7-6.8-54.3 16.7-85.7 19.8-26.4 1.7-47.9-9.6-79.2-20.1-55.7-108.7-7.2-108.7-78-1.3-32.7-0.3-65.5 2.9-98.1 13.6-38.7 46.8-22.7 81.2-36.3l0.9-0.4c1.2-0.5 2.4-1.1 3.5-1.8 0.2 0 0.3-0.1 0.4-0.2 0.7-0.3 1.2-0.8 1.9-1.1 8.3-5.2 14.6-13.1 17.8-22.3v-0.1c1.2-3.4 5.3-13.9 6.5-16.9 0.1 0 0.1 0 0.1-0.1 10.5-24.7 20.4-39.2 3-62.1v-0.1c-49.4-65.6-41.5-61.1 42.2-143.9 49.5-49.4 79.1 46 132.6 20.9 20.8-10.1 52.8-16.6 60.1-38.3 0.1-0.1 0.2-0.3 0.2-0.4 7.5-16.1 2.8-41.3 13.2-60 15.8-31.4 65.4-22.8 122.3-22.8 71.4 0 22.7 87.9 78.8 107.6 65.1 23.2 51.9 30.3 108-11.2 41.1-30.3 73.1 18.8 117.2 62.4 49.8 49.3-46.5 78.6-21.2 131.4 5.3 10.9 10 22.1 14.1 33.5 11 30.4 38.4 29.5 70.5 34.1 48.5 7.1 38.2 56.1 38.2 126.4zM511.8 229.3c-86.1 0.1-155.8 69.3-155.8 154.6 0.1 85.3 69.9 154.4 156 154.4 86-0.1 155.7-69.2 155.8-154.4 0-85.3-69.8-154.5-155.9-154.5 0-0.1 0-0.1-0.1-0.1z"  horiz-adv-x="1024" />

    
    <glyph glyph-name="1_1_16" unicode="&#58913;" d="M960.2 682.2L512.1 84.8 64 682.2h896.2z"  horiz-adv-x="1024" />

    
    <glyph glyph-name="1_1_11" unicode="&#58914;" d="M801.9 831.5H238.5c-56.1 1.4-102.7-42.8-104.2-98.9 0-1.2-0.1-2.3 0-3.5v-610.8c-0.1-9.3 7.4-17 16.7-17.1h631.7c29.5-0.4 53.2-24.7 52.8-54.2 0-1.5-0.1-3.1-0.3-4.6-3.1-27.8-26.7-48.8-54.7-48.5H141.3c-11.1-0.2-19.9-9.3-19.7-20.4 0.1-5.8 2.7-11.3 7.2-15 17.9-14.8 40.3-22.9 63.4-22.9h609.6c56 0.5 101.1 46.4 100.7 102.4V729.1c0.4 56-44.6 101.8-100.6 102.4zM568.5 239.2c1.3-25.7-18.5-47.5-44.2-48.8-25.7-1.3-47.6 18.5-48.8 44.2-0.1 1.5-0.1 3.1 0 4.6-0.2 26 20.5 47.5 46.6 48.1 25.6 0.2 46.4-20.4 46.6-46v-0.6l-0.2-1.5zM572 401c-2.3-1.1-3.7-3.5-3.5-6v-32.9c1.3-25.7-18.5-47.5-44.2-48.8-25.7-1.3-47.6 18.5-48.8 44.2-0.1 1.5-0.1 3.1 0 4.6V395c-0.4 42.7 26.2 80.9 66.4 95.4 32.5 11.6 49.4 47.2 37.9 79.7-8.3 23.3-29.6 39.5-54.3 41.3-28.8 1.6-54.8-17.2-62.3-45.1-6.5-24.6-31.8-39.3-56.4-32.8-0.3 0.1-0.6 0.2-0.9 0.2-24.9 7.4-39.2 33.4-32.2 58.3 18.8 70.2 84.2 117.7 156.8 113.9 86.7-6.5 151.7-82 145.2-168.6-4.8-61.8-45.4-115.2-103.7-136.3z"  horiz-adv-x="1024" />

    
    <glyph glyph-name="1_1_13" unicode="&#58915;" d="M909.3 35.3c0.2 201.6 0.3 403.2 0.1 604.7-0.1 63.2-39.2 100.5-96.1 100.9-22.3 0.2-44.6 0.7-66.9-0.2-11.6-0.4-14.5 3.9-14.2 14.8 0.6 20.6-0.2 41.2 0.2 61.8 0.2 9.6-2.8 13.5-12.7 13.1-15.5-0.3-42.5-0.5-63.9-0.3-5.6 0-10.2-4.5-10.2-10.2v-130.8c0-6.6-5.3-12.1-12-12.2h-28.1c-6.7 0.1-12.1 5.5-12.1 12.2v51.6c-131.9 0.6-184.2-0.6-213.7 0.7 0 25.8-0.3 50.3 0.1 74.8 0.5 20.8-8.5 11.7-76.2 14.1-9.1 0.2-12.5-2.9-13.2-9.7 0.1-0.8 0.2-1.7 0.2-2.5V689c0-6.7-5.4-12.1-12.1-12.2h-27.9c-6.7 0.1-12.1 5.5-12.1 12.2v52.1c-10.4 0-20.9-0.2-31.3-0.4-49.5 1.9-91.1-36.7-93-86-0.1-3.2-0.1-6.3 0.1-9.5-0.1-204.1-0.1-408.2 0-612.2 0-59.2 36.2-96.5 94.4-96.6 201.9-0.2 403.9-0.1 605.9 0.4 14.9-0.1 29.6 3 43.2 9 34.4 16.2 54.9 52 51.5 89.5z m-88.2 7.4c0-12.9-3.4-17.5-16.7-17.5-195 0.4-390 0.4-585 0-12.8 0-17.3 3.8-17.3 17.1 0.4 167.9 0.4 335.8 0 503.7 0 12.5 3.8 16.4 16.2 16.3 91.1-0.4 497-0.4 585 0 13.3 0.1 18-3.1 17.9-17.5-0.5-167.4-0.5-334.7-0.1-502.1zM555.8 237.2c0.2 9.3-3.9 12.1-12.5 12.1-21.3-0.2-42.6-0.3-63.9 0-9 0.1-12.4-3.6-12.1-12.4 0.2-5.7 0.4-56.9-0.1-63.7-0.6-9.5 2.4-13.4 12.4-13.2 69.7 1.7 76.5-5.2 76.1 12-0.4 21.7-0.3 43.5 0.1 65.2z m-175.9-3c0.6 10.6-3.3 15.4-14.4 15.1-20.3-0.5-40.6-0.4-60.9 0-10.2 0.2-14.4-3.7-14.3-13.9 0.3-20.7 0.3-41.5 0-62.2-0.1-9.3 3.4-13.4 13.1-13.3 20.8 0.4 41.6 0.6 62.3 0 11.4-0.3 14.8 4.6 14.2 15.1-0.3 6.2-0.3 53.7 0 59.2z m352.4-31.1c0 11.4-0.2 22.8 0 34.2 0.1 7.8-3.1 11.9-11.4 11.9-21.9-0.2-43.7-0.2-65.6 0-9 0.1-12.2-4.2-12.2-12.8 0.2-20.8 0.3-41.6 0-62.4-0.2-10 3.6-14.4 14-14.1 84.5 2.6 75.3-12.8 75.2 43.2zM554.7 425.7h-86.4v-85h86.4v85zM300.5 340c22.8-0.9 45.6-1 68.4 0 5 1.3 8.9 5.1 10.4 10.1 0.9 24.6 0.5 49.3 0.5 76.3-28.5 0-56.1 0.2-83.6-0.3-1.9 0-5.4-5.5-5.4-8.5-0.4-22.7-0.7-45.5 0.2-68.2 1.3-4.6 4.9-8.2 9.5-9.4z m353.3-0.1c22.8-0.9 45.7-0.8 68.5 0 4.6 1.2 8.2 4.7 9.5 9.2 0.8 25.1 0.4 50.3 0.4 77.3-28.1 0-54.7 0.3-81.3-0.5-2.6-0.1-7.2-6.6-7.3-10.2-0.7-21.8-0.8-43.6 0.2-65.3 1.3-4.9 5.1-8.9 10-10.5z"  horiz-adv-x="1024" />

    
    <glyph glyph-name="1_1_8" unicode="&#58916;" d="M420 329.9c26.5-15.8 60.8-7.2 76.7 19.3 15.8 26.5 7.2 60.8-19.3 76.7-26.5 15.9-60.8 7.2-76.7-19.3-15.9-26.6-7.2-60.9 19.3-76.7z m269.2 192.7c13.8 11.1 16.1 31.3 5 45.2-11.1 13.9-31.4 16.1-45.2 4.9-13.8-11.1-16.1-31.4-4.9-45.2 11-13.8 31.2-16 45.1-4.9z m252.3-415.5h-859c-10.3 0-18.7-8.4-18.7-18.7 0-10.3 8.4-18.7 18.7-18.7h859c10.3 0 18.7 8.4 18.7 18.7 0 10.4-8.4 18.7-18.7 18.7z m-805.1 53.2h751.1c14.9 0 28.3 6.3 38.1 16.5s15.8 24.2 15.8 39.7V641.1c0 15.5-6.1 29.5-15.8 39.7-9.8 10.2-23.3 16.5-38.1 16.5H136.4c-14.9 0-28.3-6.3-38.1-16.5s-15.8-24.2-15.8-39.7v-424.6c0-15.5 6.1-29.5 15.8-39.7 9.8-10.2 23.3-16.5 38.1-16.5z m440.1 389c2.7 24.2 0.9 24.9 17.9 25.5 5.9 0.2 7 3.7 9.7 8.6 0.3 0.6 1.5 2.6 1.9 3.2 1.1 1.7 1.6 3.8 1.3 5.8 0 0.1 0 0.3-0.1 0.4v0.1c0 0.3-0.1 0.5-0.2 0.8v0.2c-2.2 7.4-9.1 10.6-4.6 17.8 4.9 4.8 10.1 9.2 15.5 13.3 11.5 9.2 15-11.4 26.7-7.3 6.5 2.3 12.3 2.2 14.1 8.8 2.1 7.9 3.1 14.8 11.8 13.9 24.1-2.6 24.9-0.3 25.5-17.9 0.2-6.8 6-8 11.8-11.6 10.4-6.5 18.4 12.8 27.6 1.3 14.8-18.4 17.4-17.7 5.4-30.7-4.7-5-1.4-10 0.1-16.6 1.6-6.6 7.2-7 13.7-8.7 9.7-2.5 6.6-12.2 5-27-1.6-14.6-18.7-2.6-24.1-13.7-2.9-6.3-7.2-10.2-3.7-16.2 3.7-6.2 8.4-12.6 1.5-18.1-11.4-9.2-18-17.2-25.4-10.3-4.9 4.6-8.2 9.1-14.6 6.9-2.4-0.8-4.8-1.5-7.2-2.1-11.8-2.8-4.2-22.1-18.6-20.5-12.7 1.4-24.8 0.2-25.2 10.7-0.5 14.4 0 11.4-12.1 18.8-10.4 6.5-18.4-12.8-27.6-1.3-7.3 9.2-15.1 16-12.1 22.6 1.7 4.1 6.4 6.6 8 9.9v0.1c2.6 4-0.5 10-1.6 14.7-2.7 11.8-22 4.2-20.4 18.6zM310.6 376.9c9.6 4 9.2 10.3 10.6 19.9 0.2 1.2 0.9 5.2 1.2 6.4 0.7 3.5 0.3 7.1-1.3 10.2v0.1c-0.1 0.2-0.2 0.5-0.4 0.7 0 0.1 0 0.1-0.1 0.2-0.2 0.4-0.5 0.8-0.7 1.2l-0.2 0.3c-8.1 10.6-21.2 11.7-18.2 26.2 5.1 10.7 10.9 21.1 17.3 31 13.2 22 31.4-9.4 47.9 4.2 9.3 7.7 18.8 11 17.7 22.8-1.4 14.1-4 26 10.8 29.7 40.8 10.2 40.7 14.6 52.5-13.8 4.5-11 14.7-9.4 26.3-11.7 21-4.2 22.3 32 44.2 18.9 35.3-21.1 39.2-18.4 27.4-46.8-4.6-11 3.7-17 10.3-26.9 6.5-9.7 15.9-7 27.6-5.9 17.4 1.8 18.2-16.1 24.4-41 6.2-24.9-28.9-15.6-30.9-37-1.1-11.9-5.6-21.1 3.7-28.6 9.7-7.9 21.3-15.4 13.4-28.5-13.1-21.8-19-39-35.2-32.2-10.7 4.5-19 9.8-28 2.4-3.4-2.8-6.9-5.4-10.5-7.8-17.6-11.8 6.6-38.6-17.9-44.7-21.6-5.4-40.6-14.8-47.6 2.2-9.6 23.2-6.9 18.6-31.2 23.4-20.9 4.2-22.3-32-44.2-18.9-17.5 10.5-34.4 16.9-33.4 29.6 0.3 7.7 6.4 14.7 7.1 21.1v0.2c1.8 8.1-6.8 16-11.4 23-11.8 17.7-38.6-6.5-44.7 17.9-10.6 40.9-13.9 40.9 13.5 52.2z"  horiz-adv-x="1024" />

    
    <glyph glyph-name="1_1_14" unicode="&#58917;" d="M327.2 427.7c16.3 16.5 16.3 43.1-0.1 59.5-7.5 7.6-17.7 11.9-28.3 12.3h-34c52.4 137.9 206 207 343 154.3 41.1-15.8 77.6-41.6 106.3-75.1 20.2-22.7 54.9-24.6 77.5-4.2 21.9 19.8 24.4 53.5 5.6 76.3-135.4 158-372.4 175.6-529.3 39.3-57.4-49.8-98.5-116-117.8-189.8-55.4 0.2-62.5-1.6-74-13.2-16.3-16.4-16.3-43.1 0-59.5l96-96.6c16.3-16.4 42.8-16.4 59.1 0l96 96.7zM948.5 339c-0.2 0.2-0.5 0.5-1.1 0.3l-96 96.6c-16.3 16.4-42.8 16.4-59.1 0l-96-96.6c-16.3-16.4-16.3-43.1 0-59.5 7.5-7.6 17.7-12 28.3-12.3h34c-39.8-103.2-138.2-171.4-248.1-172-80.8-0.2-157.2 36.8-207.5 100.4-19.2 23.6-53.8 27.1-77.2 7.7-23.1-19-26.8-53.1-8.4-76.8 71.1-89.8 179-142 293.1-141.7 170.1 1 318.6 116.2 362.9 281.5 55.4-0.2 62.4 1.6 73.9 13.2 16.6 16.2 17.3 42.5 1.2 59.2z"  horiz-adv-x="1024" />

    
    <glyph glyph-name="1_1_7" unicode="&#58918;" d="M470.4 644.8h-5v45.9c0.3 14.9-11.5 27.3-26.4 27.6H128.2c-15-0.3-26.8-12.7-26.6-27.6v-45.9H90.4c-15-0.3-26.8-12.7-26.6-27.6v-540.9c-0.3-15 11.6-27.3 26.6-27.6h141.7v90.7c-0.2 9.3 7.3 17.1 16.6 17.3H312c9.3-0.2 16.8-7.9 16.6-17.3v-90.7H497V678.1c0.3 15-11.6-33.5-26.6-33.3zM413 277.2c-0.5-14.5-12.2-26.2-26.7-26.7H173.7c-15.3 0.5-27.2 13.3-26.7 28.6 0.5 14.5 12.2 26.2 26.7 26.7h212.7c15.2-0.6 27.2-13.4 26.6-28.6z m0 123.4c-0.5-14.5-12.2-26.2-26.7-26.7H173.7c-15.3 0.5-27.2 13.3-26.7 28.6 0.5 14.5 12.2 26.2 26.7 26.7h212.7c15.2-0.6 27.2-13.4 26.6-28.6z m0 123.3c-0.5-14.5-12.2-26.2-26.7-26.7H173.7c-15.3 0.5-27.2 13.3-26.7 28.6 0.5 14.5 12.2 26.2 26.7 26.7h212.7c15.2-0.5 27.2-13.3 26.6-28.6z m287.4-59.4h-5v45.2c0.1 15-12 27.2-27 27.2H560.6v-163.3h54c15 0 27.2-12.2 27.2-27.2s-12.2-27.2-27.2-27.2h-54v-67.1h54c15 0 27.2-12.2 27.2-27.2s-12.2-27.2-27.2-27.2h-54v-149h139.8c15 0 27.2 12.2 27.2 27.2V437.2c0 15.1-12.1 27.3-27.2 27.3z m232.6 0h-5v45.2c0.1 15-12 27.2-27 27.2H793.2v-163.3h54c15 0 27.2-12.2 27.2-27.2s-12.2-27.2-27.2-27.2h-54v-67.1h54c15 0 27.2-12.2 27.2-27.2s-12.2-27.2-27.2-27.2h-54v-149H933c15 0 27.2 12.2 27.2 27.2V437.2c0 15.1-12.2 27.3-27.2 27.3z"  horiz-adv-x="1024" />

    
    <glyph glyph-name="1_1_1" unicode="&#58920;" d="M948.2 572.6L519.1 706.9c-3.9 1.5-8.4 1.7-12.7 0.4L76.1 572.6c-8.7-2.7-13.2-11-10.1-18.5 3.2-7.5 12.8-11.4 21.5-8.7h19.6v-469.6c0-8.8 7.7-16 17.2-16H900c9.5 0 17.2 7.2 17.2 16V545.4h19.6c8.7-2.7 18.4 1.2 21.6 8.7 3.1 7.5-1.4 15.8-10.2 18.5zM613.9 456.7v72.1H724.5v-80.1H613.9v8z m-471-8v80.1H253.5v-80.1H142.9z m219-318.1c0-8.6-7.3-15.5-16.4-15.5H214.3c-9 0-16.4 6.9-16.4 15.5v74.7c0 8.6 7.3 15.5 16.4 15.5h131.2c9 0 16.4-6.9 16.4-15.5v-74.7z m0 131.4c0-8.6-7.3-15.5-16.4-15.5H214.3c-9 0-16.4 6.9-16.4 15.5v74.7c0 8.6 7.3 15.5 16.4 15.5h131.2c9 0 16.4-6.9 16.4-15.5V262z m-52.8 186.7h-9.2v80.1H410.5v-80.1H309.1z m277.8-318.1c0-8.6-7.3-15.5-16.4-15.5H439.4c-9 0-16.4 6.9-16.4 15.5v74.7c0 8.6 7.3 15.5 16.4 15.5h131.2c9 0 16.4-6.9 16.4-15.5v-74.7z m0 131.4c0-8.6-7.3-15.5-16.4-15.5H439.4c-9 0-16.4 6.9-16.4 15.5v74.7c0 8.6 7.3 15.5 16.4 15.5h131.2c9 0 16.4-6.9 16.4-15.5V262z m-19.4 258.8v-72.1H456.9v80.1H567.5v-8z m244.4-390.2c0-8.6-7.3-15.5-16.4-15.5H664.4c-9 0-16.4 6.9-16.4 15.5v74.7c0 8.6 7.3 15.5 16.4 15.5h131.2c9 0 16.4-6.9 16.4-15.5v-74.7z m69.6 390.2v-72.1H770.9v80.1H881.5v-8z"  horiz-adv-x="1024" />

    
    <glyph glyph-name="1_1_3" unicode="&#58921;" d="M551.8 734.1H231v-130.7c0-19.7-16-35.6-35.8-35.6H64v-517.9c0-9.4 7.6-17 17.1-17h470.7c9.4 0 17.1 7.6 17.1 17V717.1c-0.1 9.4-7.7 17-17.1 17zM193.6 130.4h-71.1v70.8h71.1v-70.8z m0 110.7h-71.1V312h71.1v-70.9z m0 110.6h-71.1v70.9h71.1v-70.9z m0 110.7h-71.1v70.8h71.1v-70.8z m290-332H228.9v41.8h254.8v-41.8z m0 110.7H228.9v41.8h254.8v-41.8z m0 110.6H228.9v41.8h254.8v-41.8z m0 110.7H228.9v41.8h254.8v-41.8zM78.2 611.3h94.9c7.8 0 14.2 6.3 14.2 14.1V720c0 3.6-1.4 7.2-4.2 10-5.5 5.5-14.5 5.5-20.1 0l-94.8-94.4c-2.6-2.6-4.2-6.1-4.2-10.1 0-7.9 6.4-14.2 14.2-14.2zM746.3 502l80.1-31.7 31.3-12.4 99.4 35.5c2.6 1.3 3.8 4.3 2.8 7.1-0.7 2-2.6 3.1-4.5 3.8l-129 46.1-80.1 28.6-58.3 20.8c-1.4 0.3-3-0.1-4.3-0.6l-2.9-1-93.3-33.3 93.3-37 65.5-25.9z m-75.4-138.7v-277.9 277.9z m287.4 94.9l-97.5-34.8 1.5-53.3c0-3.8-2-7.3-5.8-8.5l-30.2-9.8-10-3.3c-5.1-1.6-11.6 1.5-11.6 7.2l-1.4 47.1-57.1-20.4-53.8-19.2v-282l53.8 19.2 80.1 28.5 130.2 46.4c2.3 0.9 3.6 3.2 3.6 5.6v278c-0.5-0.1-1.1-0.4-1.8-0.7zM800 437.3l-53.8 22.5-65.4 27.4-93.3 39v-94l93.3-33.4 4.5-1.6c1.4-0.3 3 0.1 4.3 0.6l56.7 20.2 53.7 19.3zM670.8 83.1v280l-83.3 33.4v-282.1l83.3-33.3 0.1-0.1c-0.1 0.4-0.1 0.7-0.1 1.1v1z"  horiz-adv-x="1024" />

    
    <glyph glyph-name="1_1_5" unicode="&#58922;" d="M942.7 658c-10.8 10.8-25.7 17.4-42.1 17.4h-777c-16.4 0-31.3-6.7-42.1-17.4S64 632.4 64 616.1v-464.2c0-16.3 6.7-31.2 17.5-41.9 10.8-10.8 25.7-17.4 42.1-17.4h776.9c16.4 0 31.3 6.7 42.1 17.4 10.8 10.8 17.5 25.6 17.5 41.9V616.1c0.1 16.3-6.6 31.2-17.4 41.9zM660.5 550.7c35.8 0 64.9-28.9 64.9-64.6 0-35.7-29-64.6-64.9-64.6-35.8 0-64.9 28.9-64.9 64.6 0.1 35.7 29.1 64.6 64.9 64.6z m-306.1 0c35.8 0 64.9-28.9 64.9-64.6 0-35.7-29-64.6-64.9-64.6-35.8 0-64.9 28.9-64.9 64.6 0 35.7 29.1 64.6 64.9 64.6z m133.7-271.3h-43.9c-7.4 0-14.5 2.9-19.7 8.2l-5.2 5.2V215c0-8-6.5-14.4-14.5-14.4h-104c-8 0-14.5 6.4-14.5 14.4V359c0 20.8 17 37.7 37.9 37.7h51.4c12.1 0 23.6-5 31.9-13.8 0.3-0.3 0.6-0.5 0.9-0.8l47.3-47.4H487c15.4 0.3 28.1-11.9 28.3-27.2 0.4-15.2-11.9-27.8-27.2-28.1zM728.5 215c0-8-6.5-14.4-14.5-14.4H610.2c-8 0-14.5 6.5-14.5 14.4v77.7l-5.2-5.2c-5.2-5.2-12.3-8.2-19.7-8.2h-35.5c13.4 16.5 12 40.5-3.3 55.4h27.2l47.3 47.4c0.3 0.3 0.6 0.5 0.9 0.8 8.2 8.8 19.8 13.8 31.9 13.8h51.4c20.9 0 37.9-16.9 37.9-37.7v-144z m141-14.4h-60.1v34.7h60.1v-34.7z"  horiz-adv-x="1024" />

    
    <glyph glyph-name="1_1_2" unicode="&#58924;" d="M762.4 255.2c-24.3 0-46.2-10.1-62.2-26.4-15.9-16.3-25.7-38.9-25.7-63.8s9.8-47.5 25.7-63.8c15.9-16.3 37.9-26.4 62.2-26.4 24.3 0 46.2 10.1 62.2 26.4 15.9 16.3 25.7 38.9 25.7 63.8s-9.8 47.5-25.7 63.8c-16 16.3-38 26.4-62.2 26.4zM785.7 141c-6-6.1-14.2-9.9-23.3-9.9-9.1 0-17.3 3.8-23.3 9.9-6 6.1-9.6 14.6-9.6 23.9 0 9.3 3.7 17.8 9.6 23.9 6 6.1 14.2 9.9 23.3 9.9 9.1 0 17.3-3.8 23.3-9.9 6-6.1 9.6-14.6 9.6-23.9 0-9.3-3.7-17.8-9.6-23.9zM941 183.7h-1.5c-0.1 0.4-0.1 0.9-0.2 1.3l-13.6 103.1c-4.7 35.3-18.9 99.2-39.5 127.1-8.7 11.7-18.4 22.5-29.2 32.2-30.2 27.4-65.6 48.1-106.6 52.2-7.5 0.8-15.1 1-23 0.6-3.3-0.2-6.8 0.2-10.1 0.2l-84.8 0.2v20h72.3V646.8h-72.3v26.8c0 10.4-8.2 18.8-18.3 18.8h-522c-10.1 0-18.3-8.4-18.3-18.8v-489.9H63.3v-37.6h129.2l-0.6 4.2c-0.1 0.4-0.1 0.9-0.2 1.3l-0.3 2.4c-3 32.2 8.3 65.2 30.6 88 20 20.5 46.8 31.9 75.1 31.9s55.1-11.4 75.1-31.9c20-20.6 31.1-48.2 31.1-77.1 0-6.3-0.5-12.6-1.6-18.7h210.9c0.5 0 1.1-0.1 1.6-0.1h40.4c-1 6.2-1.6 12.4-1.6 18.8s0.5 12.6 1.6 18.8c0.1 0.4 0.1 0.8 0.2 1.2l0.1 0.4 0.1 0.8 0.1 0.5 0.1 0.7 0.1 0.5v0.1l0.2 1 0.1 0.5 0.2 0.7 0.1 0.5 0.2 0.8 0.1 0.3 0.3 1.1v0.1c0.1 0.4 0.2 0.8 0.3 1.1l0.1 0.4 0.2 0.7 0.2 0.6 0.2 0.7 0.1 0.4c0.1 0.4 0.2 0.7 0.3 1.1v0.1l0.1 0.3 0.3 0.8 0.2 0.5 0.2 0.7 0.2 0.5 0.2 0.6 0.2 0.5 0.4 1.1 0.1 0.4 0.3 0.8 0.2 0.5 0.3 0.7 0.2 0.4 0.4 1.1v0.1c0.1 0.3 0.3 0.7 0.4 1l0.2 0.4 0.3 0.8 0.1 0.3 0.4 0.8 0.1 0.3c0.2 0.4 0.3 0.7 0.5 1.1l0.1 0.3 0.4 0.8 0.2 0.4 0.3 0.7 0.2 0.4c0.2 0.3 0.3 0.6 0.5 0.9l0.1 0.2 0.1 0.1 0.5 0.9 0.2 0.4 0.4 0.7 0.2 0.4 0.4 0.8 0.2 0.3c0.2 0.3 0.4 0.7 0.6 1l0.2 0.4 0.4 0.7 0.2 0.4 0.5 0.8 0.2 0.3c0.2 0.3 0.4 0.6 0.5 0.9l0.1 0.1c0.2 0.3 0.4 0.6 0.6 1l0.3 0.4 0.4 0.6 0.3 0.4 0.6 0.9 0.1 0.1c0.2 0.3 0.5 0.7 0.7 1v0.1l0.2 0.2 0.5 0.7 0.3 0.4 0.5 0.6 0.2 0.3 0.6 0.8 0.1 0.2 0.1 0.1c0.2 0.3 0.5 0.6 0.7 0.9l0.2 0.2 0.5 0.7 0.3 0.3 0.6 0.8 0.1 0.2c0.3 0.3 0.5 0.6 0.8 1 0.2 0.3 0.5 0.6 0.7 0.9l0.2 0.3 0.6 0.7 0.2 0.3 0.7 0.8 0.1 0.1c0.3 0.3 0.5 0.6 0.8 0.9l0.2 0.2 0.7 0.7 0.2 0.2 0.6 0.7 0.3 0.3c0.3 0.3 0.5 0.6 0.8 0.9 17.9 18.4 41.3 29.4 66.2 31.6 2.9 0.3 5.9 0.4 8.8 0.4 28.2 0 55.1-11.4 75.1-31.9 0.3-0.3 0.5-0.6 0.8-0.9l0.3-0.3 0.6-0.7 0.2-0.3 0.7-0.7 0.2-0.2c0.3-0.3 0.5-0.6 0.8-0.9l0.1-0.1 0.7-0.8 0.2-0.3 0.6-0.7 0.2-0.3c0.2-0.3 0.5-0.6 0.7-0.9 0.3-0.3 0.5-0.6 0.8-1l0.1-0.2 0.6-0.8 0.3-0.3 0.5-0.7 0.2-0.2c0.2-0.3 0.5-0.6 0.7-0.9l0.1-0.1 0.1-0.2c0.2-0.3 0.4-0.5 0.6-0.8l0.2-0.3 0.5-0.6 0.3-0.4 0.5-0.7 0.2-0.2v-0.1c0.2-0.3 0.5-0.7 0.7-1l0.1-0.1 0.6-0.9 0.3-0.4 0.4-0.7 0.2-0.3c0.2-0.3 0.4-0.7 0.6-1l0.1-0.1c0.2-0.3 0.4-0.6 0.5-0.9l0.2-0.3 0.5-0.8 0.2-0.4 0.4-0.7 0.2-0.3c0.2-0.3 0.4-0.7 0.6-1l0.2-0.3 0.4-0.8 0.2-0.4 0.4-0.7 0.2-0.4 0.5-1c0.2-0.4 0.4-0.7 0.5-1.1l0.2-0.3 0.4-0.8 0.1-0.3 0.4-0.9 0.1-0.2c0.2-0.4 0.3-0.7 0.5-1.1l0.1-0.2c0.1-0.3 0.3-0.6 0.4-1l0.1-0.2 0.4-0.8 0.2-0.4c0.1-0.3 0.3-0.7 0.4-1v-0.1c0.1-0.4 0.3-0.7 0.4-1.1l0.1-0.3 0.3-0.8 0.2-0.4 0.3-0.7 0.1-0.4c0.1-0.4 0.3-0.8 0.4-1.1v-0.1c0.1-0.4 0.2-0.7 0.4-1.1l0.1-0.4 0.2-0.7 0.1-0.4 0.3-0.9 0.1-0.2v-0.1c0.1-0.4 0.2-0.7 0.3-1.1l0.1-0.3 0.3-0.9 0.1-0.4 0.2-0.8 0.1-0.4c0.1-0.4 0.2-0.8 0.3-1.1v-0.2l0.2-1 0.1-0.3 0.2-0.8 0.1-0.5 0.2-0.8 0.1-0.3v-0.1c0.1-0.3 0.1-0.7 0.2-1v-0.1l0.1-0.4 0.2-0.8 0.1-0.4 0.2-0.8 0.1-0.3c0.1-0.4 0.1-0.8 0.2-1.2 1-6.2 1.6-12.4 1.6-18.8 0-6.3-0.5-12.6-1.6-18.8H941c10.1 0 18.3 8.4 18.3 18.8 0 9.7-8.2 18.1-18.3 18.1zM632.6 375.5V463H725c8.6 0 17.1-0.8 25.5-2.3 30.4-5.5 59-20.4 82.5-41.6 13.9-12.6 26-27.4 35.4-43.7H632.6z m253.7-43.8c-0.5 2.1-1.1 4.2-1.7 6.2 0.6-2.1 1.2-4.1 1.7-6.2 0.6-2.5 1.2-35.9 1.7-38.4-0.5 2.5-1.1 35.9-1.7 38.4z m-589.1-76.5c-24.3 0-46.2-10.1-62.1-26.4-15.9-16.3-25.7-38.9-25.7-63.8s9.8-47.5 25.7-63.8c15.9-16.3 37.9-26.4 62.1-26.4 24.3 0 46.2 10.1 62.2 26.4 15.9 16.3 25.7 38.9 25.7 63.8s-9.8 47.5-25.7 63.8c-16 16.3-38 26.4-62.2 26.4zM320.5 141c-6-6.1-14.2-9.9-23.3-9.9-9.1 0-17.3 3.8-23.3 9.9-6 6.1-9.7 14.6-9.7 23.9 0 9.3 3.7 17.8 9.7 23.9 6 6.1 14.2 9.9 23.3 9.9 9.1 0 17.3-3.8 23.3-9.9 6-6.1 9.6-14.6 9.6-23.9 0-9.3-3.7-17.8-9.6-23.9z"  horiz-adv-x="1024" />

    
    <glyph glyph-name="1_1_4" unicode="&#58925;" d="M606.2 772H488.9v-37.7c0-9.7-4-18.6-10.4-24.9-6.4-6.4-15.2-10.4-25-10.4H260.3c-9.7 0-18.6 4-25 10.4-6.4 6.4-10.4 15.2-10.4 24.9V772H107.7c-12.1 0-23.1-4.9-31-12.9-8-8-12.9-18.9-12.9-31v-710.2c0-12.1 4.9-23.1 12.9-31 8-8 19-12.9 31-12.9h498.5c12.1 0 23.1 4.9 31 12.9 8 8 12.9 18.9 12.9 31V728.1c0 12.1-4.9 23.1-12.9 31-7.9 8-18.9 12.9-31 12.9zM206.9 608c38.4 38.4 91.4 62.1 150 62.1 58.6 0 111.6-23.7 150-62.1 38.4-38.4 62.1-91.4 62.1-149.9 0-58.6-23.7-111.6-62.1-150-38.4-38.4-91.4-62.1-150-62.1-58.6 0-111.6 23.7-150 62.1-38.4 38.4-62.2 91.4-62.2 150 0.1 58.5 23.8 111.5 62.2 149.9z m350.5-560.5H156.5c-9.6 0-17.4 12.4-17.4 22s7.8 22 17.4 22h400.9c9.6 0 17.4-12.4 17.4-22s-7.8-22-17.4-22z m0 96.3H156.5c-9.6 0-17.4 12.4-17.4 22s7.8 22 17.4 22h400.9c9.6 0 17.4-12.4 17.4-22 0-9.7-7.8-22-17.4-22zM271.1 725.2h171.7c4.2 0 8.2 1.7 11.2 4.7s4.7 7 4.7 11.2v36c0 4.2-1.7 8.2-4.7 11.2s-7 4.7-11.2 4.7H271.1c-4.2 0-8.2-1.7-11.2-4.7s-4.7-7-4.7-11.2v-36c0-4.2 1.7-8.2 4.7-11.2s7-4.7 11.2-4.7zM357 282.8c48.4 0 92.3 19.6 124 51.3 31.7 31.7 51.4 75.5 51.4 123.9 0 48.4-19.6 92.2-51.4 124-31.7 31.7-75.6 51.3-124 51.3-48.4 0-92.3-19.6-124-51.3-31.7-31.7-51.4-75.5-51.4-124 0-48.4 19.6-92.2 51.4-123.9 31.7-31.7 75.5-51.3 124-51.3z m-40.1 296.5s34.9-71.4 41.6-84.7h0.4l42.9 84.7h58l-67.5-109.4H442v-34.5h-58.4v-26.8H442v-34.3h-58.4V308h-55.9v66.3H270v34.3h57.7v26.8H270v34.5h49.1l-65.2 109.4h63z m632.2 108.2c-6.8 6.8-16.3 11.1-26.7 11.1H821.7v-32.4c0-8.4-3.4-15.9-8.9-21.4-5.5-5.5-13.1-8.9-21.5-8.9h-94.6v-423.7h183.8c8.3 0 15-11.3 15-19.5 0-8.3-6.7-19.5-15-19.5H696.7v-59.3h183.8c8.3 0 15-11.3 15-19.5 0-8.3-6.7-19.5-15-19.5H696.7V13h225.7c10.4 0 19.8 4.2 26.7 11.1 6.8 6.8 11.1 16.3 11.1 26.7v610c0 10.4-4.3 19.9-11.1 26.7z m-159.2-19.8c2.3 2.3 3.6 5.4 3.6 8.7v27.8c0 3.3-1.3 6.3-3.6 8.7-2.3 2.3-5.4 3.6-8.7 3.6h-84.5v-52.3h84.5c3.3-0.1 6.4 1.2 8.7 3.5z"  horiz-adv-x="1024" />

    
    <glyph glyph-name="1_3_1" unicode="&#58929;" d="M240 831.5l544.2-448-544.2-448v896z"  horiz-adv-x="1024" />

    
    <glyph glyph-name="1_3_2" unicode="&#58931;" d="M956.5 571.7l-55.6 53.8L512 249.1 123.1 625.5l-55.6-53.8L512 141.5l55.6 53.8z"  horiz-adv-x="1024" />

    
    <glyph glyph-name="1_6_1" unicode="&#58932;" d="M541.8 756.5l-43.5 41.4L63.8 384l434.5-413.9 43.5 41.4L150.7 384l391.1 372.5z m418.4 0l-43.5 41.4L482.2 384l434.5-413.9 43.5 41.4L569.1 384l391.1 372.5z"  horiz-adv-x="1024" />

    
    <glyph glyph-name="1_6_2" unicode="&#58933;" d="M525.7 797.9l-43.5-41.4L873.3 384 482.2 11.5l43.5-41.4L960.2 384 525.7 797.9z m-418.4 0l-43.5-41.4L454.9 384 63.8 11.5l43.5-41.4L541.8 384 107.3 797.9z"  horiz-adv-x="1024" />

    
    <glyph glyph-name="1_5_1" unicode="&#58934;" d="M959.5 742L870 831.5l-358-358-358 358L64.5 742l358-358-358-358 89.5-89.5 358 358 358-358 89.5 89.5-358 358z"  horiz-adv-x="1024" />

    
    <glyph glyph-name="2_2_9" unicode="&#58935;" d="M887.6-62.3c-15 0-30 5.7-41.3 17L718.6 82.4c-22.8 22.7-22.8 59.8 0 82.6 22.7 22.8 59.8 22.8 82.6 0l127.7-127.7c11.1-11.1 17.1-25.7 17-41.3 0-15.5-6.1-30.3-17-41.3-11.4-11.4-26.3-17-41.3-17z m0 0M322.7 800c-47.7-20.2-90.7-49.1-127.5-86-36.9-36.9-65.8-79.8-85.9-127.6-19.5-46.1-30.1-94.9-31.4-145.3v-22c1.3-50.3 11.9-99.1 31.4-145.3 20.2-47.7 49.1-90.7 86-127.5 36.8-36.8 79.7-65.8 127.5-86 49.5-21 102.1-31.6 156.3-31.6 54.1-0.1 106.7 10.6 156.2 31.7 47.7 20.2 90.7 49.2 127.5 86s65.8 79.7 86 127.5c21 49.5 31.6 102.1 31.6 156.3 0 54.2-10.6 106.8-31.6 156.3-20.2 47.7-49.1 90.7-86 127.5-36.8 36.8-79.8 65.7-127.6 86C586.6 820.6 535 831.2 481.8 831.6h-5.7c-53.2-0.4-104.8-11-153.4-31.6z m383-143.1c60.6-60.6 94-141.1 94-226.8 0.1-85.7-33.3-166.1-93.9-226.7-60.6-60.6-141.1-94-226.8-94-85.6 0-166.2 33.2-226.8 93.9-60.6 60.6-94.1 141.1-94 226.8 0.1 85.7 33.4 166.2 94 226.8 60.6 60.6 141.1 94 226.8 94 85.7-0.1 166.1-33.4 226.7-94z"  horiz-adv-x="1024" />

    
    <glyph glyph-name="2_2_3" unicode="&#58937;" d="M960.2 682.3L512 84.7 63.8 682.3h896.4z"  horiz-adv-x="1024" />

    
    <glyph glyph-name="2_2_8" unicode="&#58938;" d="M219.9 715.6C119.2 631.1 67.3 510 67.3 387.6v-0.3c0.1-98.3 33.5-197.3 102-278.8C322.6-74.2 594.4-99.4 775.9 53c58.1 49.4 105.6 126 130.8 193h-0.1c-3.4-8.3-8.9-15.9-16.2-22.1a58.088 58.088 0 0 0-57-10.1c-19.4 7.1-33.6 24-37.2 44.4-1.5 8.6-1 17.3 1.2 25.4l-1.4 0.5c-17.7-56.1-51-106-96-143.7-131.9-110.7-330.2-92.3-442.8 41.9-112.4 133.8-96.7 332.4 35.6 443.4C425.1 736.8 623 718 735.6 583.8l90.6 76C673 843.2 401.1 867.7 219.9 715.6zM897.5 719.6l-71.3-59.8-90.6-76-69.7-58.5c-23.4-18.3-10.4-54.6 19.2-61.5v0.1c25.8-6.1 153.3-18.7 190.9-22.7 83.9-9.1 69.7-23 73.9 81.4 4.2 104.3 3.3 121.6 6 153 4.3 52.5-37.5 61.5-58.4 44zM796.1 258.2c3.6-20.4 17.8-37.3 37.2-44.4 19.4-7.1 41.2-3.2 57 10.1 7.4 6.2 12.8 13.8 16.2 22.1 8 19.3 5.3 42.3-9.1 59.5-20.6 24.5-57.1 27.7-81.6 7.1-9.2-7.7-15.5-17.9-18.6-29-2.2-8.2-2.6-16.8-1.1-25.4z"  horiz-adv-x="1024" />

    
    <glyph glyph-name="3_2_1" unicode="&#58939;" d="M942.1 34.6c0.3 202.1 0.3 404.1 0.1 606-0.1 63.4-40.3 100.7-98.9 101.1-22.9 0.2-45.9 0.7-68.9-0.2-12-0.4-14.9 3.9-14.6 14.9 0.6 20.7-0.2 41.3 0.3 62 0.3 9.6-2.8 13.5-13.1 13.1-16-0.3-43.8-0.5-65.8-0.3-5.8 0-10.5-4.6-10.5-10.2v-131.1c0-6.7-5.5-12.1-12.3-12.2h-28.9c-6.9 0.1-12.4 5.5-12.4 12.2v51.7c-135.8 0.6-189.6-0.6-219.9 0.7 0 25.8-0.4 50.4 0.1 75 0.5 20.8-8.7 11.7-78.4 14.1-9.4 0.2-12.8-2.9-13.6-9.8 0.1-0.8 0.2-1.7 0.3-2.5v-129.4c0-6.7-5.6-12.2-12.5-12.2h-28.7c-6.9 0.1-12.5 5.5-12.5 12.2V742c-10.7 0-21.5-0.2-32.2-0.3-50.9 1.9-93.8-36.7-95.7-86.2-0.1-3.2-0.1-6.4 0.2-9.5-0.1-204.5-0.1-409 0-613.5 0-59.3 37.3-96.7 97.1-96.8 207.8-0.2 415.6-0.1 623.5 0.4 15.3-0.1 30.4 3 44.4 9 35.3 16 56.4 51.8 52.9 89.5z m-90.8 7.4c0-12.9-3.5-17.6-17.2-17.6-200.7 0.4-401.4 0.4-602 0-13.2 0-17.8 3.8-17.8 17.2 0.4 168.3 0.4 336.5 0 504.8 0 12.5 3.9 16.4 16.6 16.3 93.7-0.4 511.5-0.4 602 0 13.7 0.1 18.5-3.1 18.4-17.5-0.4-167.8-0.4-335.5 0-503.2z m-273 194.9c0.2 9.3-4.1 12.1-12.8 12.1-21.9-0.2-43.9-0.3-65.8 0-9.3 0.1-12.8-3.6-12.4-12.4 0.2-5.7 0.4-57.1-0.1-63.8-0.7-9.5 2.5-13.5 12.8-13.2 71.7 1.7 78.8-5.2 78.3 12-0.5 21.7-0.5 43.5 0 65.3z m-181-3.1c0.6 10.7-3.4 15.4-14.9 15.1-20.9-0.5-41.8-0.4-62.6 0-10.5 0.2-14.9-3.7-14.7-13.9 0.3-20.8 0.3-41.6 0-62.3-0.1-9.4 3.5-13.5 13.4-13.3 21.4 0.4 42.8 0.6 64.2 0 11.7-0.3 15.2 4.6 14.6 15.2-0.3 6.1-0.3 53.7 0 59.2z m362.7-31c0 11.4-0.2 22.8 0 34.2 0.1 7.8-3.2 11.9-11.7 11.9-22.5-0.2-45-0.2-67.5 0-9.3 0.1-12.6-4.2-12.6-12.8 0.3-20.8 0.3-41.7 0-62.5-0.2-10 3.7-14.4 14.4-14.1 86.9 2.5 77.4-12.9 77.4 43.3z m-182.8 223h-88.9v-85.2h88.9v85.2z m-261.6-85.9c23.4-0.9 46.9-1 70.4 0 5.1 1.3 9.2 5.1 10.7 10.1 0.9 24.7 0.5 49.4 0.5 76.4-29.3 0-57.7 0.2-86.1-0.3-2 0-5.5-5.5-5.5-8.5-0.5-22.8-0.7-45.6 0.2-68.3 1.4-4.6 5.1-8.1 9.8-9.4z m363.6-0.1c23.5-0.9 47-0.8 70.5 0 4.7 1.2 8.4 4.7 9.8 9.2 0.8 25.2 0.4 50.4 0.4 77.5-28.9 0-56.3 0.3-83.7-0.5-2.7-0.1-7.4-6.6-7.5-10.2-0.7-21.8-0.9-43.7 0.2-65.5 1.3-4.9 5.2-8.9 10.3-10.5z"  horiz-adv-x="1024" />

    
    </font>
</defs>
</svg>
